<?xml version="1.0" encoding="UTF-8" standalone="no"?>
<!-- Created with Inkscape (http://www.inkscape.org/) -->

<svg
   width="210mm"
   height="117.212mm"
   viewBox="0 0 210 117.212"
   version="1.1"
   id="svg481"
   inkscape:version="1.2.2 (732a01da63, 2022-12-09)"
   sodipodi:docname="dark_walkthrough_1.svg"
   xmlns:inkscape="http://www.inkscape.org/namespaces/inkscape"
   xmlns:sodipodi="http://sodipodi.sourceforge.net/DTD/sodipodi-0.dtd"
   xmlns:xlink="http://www.w3.org/1999/xlink"
   xmlns="http://www.w3.org/2000/svg"
   xmlns:svg="http://www.w3.org/2000/svg">
  <sodipodi:namedview
     id="namedview483"
     pagecolor="#505050"
     bordercolor="#eeeeee"
     borderopacity="1"
     inkscape:showpageshadow="0"
     inkscape:pageopacity="0"
     inkscape:pagecheckerboard="0"
     inkscape:deskcolor="#505050"
     inkscape:document-units="mm"
     showgrid="false"
     inkscape:zoom="0.75989757"
     inkscape:cx="382.94635"
     inkscape:cy="319.77994"
     inkscape:window-width="1415"
     inkscape:window-height="975"
     inkscape:window-x="78"
     inkscape:window-y="-7"
     inkscape:window-maximized="1"
     inkscape:current-layer="layer1" />
  <defs
     id="defs478">
    <linearGradient
       inkscape:collect="always"
       xlink:href="#linearGradient2229"
       id="linearGradient2231"
       x1="30.543722"
       y1="-36.139404"
       x2="30.543722"
       y2="34.526325"
       gradientUnits="userSpaceOnUse"
       gradientTransform="matrix(4.5110694,0,0,4.5110694,-30.333234,-18.119774)" />
    <linearGradient
       inkscape:collect="always"
       id="linearGradient2229">
      <stop
         style="stop-color:#c8c8c8;stop-opacity:1;"
         offset="0"
         id="stop2225" />
      <stop
         style="stop-color:#f3f3f3;stop-opacity:0;"
         offset="1"
         id="stop2227" />
    </linearGradient>
    <clipPath
       clipPathUnits="userSpaceOnUse"
       id="clipPath4566-6">
      <rect
         style="fill:#cdcdcd;fill-opacity:0.282974;stroke:#2a2a2a;stroke-width:0;stroke-miterlimit:0;stroke-opacity:1"
         id="rect4568-9"
         width="46.551727"
         height="30.000002"
         x="6.7241373"
         y="0"
         ry="3.4271836"
         rx="3.4271836" />
    </clipPath>
    <clipPath
       clipPathUnits="userSpaceOnUse"
       id="clipPath4562-8">
      <rect
         style="fill:#cdcdcd;fill-opacity:0.282974;stroke:#2a2a2a;stroke-width:0;stroke-miterlimit:0;stroke-opacity:1"
         id="rect4564-8"
         width="46.551727"
         height="30.000002"
         x="6.7241373"
         y="0"
         ry="3.4271836"
         rx="3.4271836" />
    </clipPath>
  </defs>
  <g
     inkscape:label="Layer 1"
     inkscape:groupmode="layer"
     id="layer1">
    <path
       id="rect1680"
       style="fill:url(#linearGradient2231);fill-opacity:1;stroke:#ffffff;stroke-width:0;stroke-miterlimit:0"
       d="M 71.370602,12.758763 V 94.043995 H -1.8633374e-4 V 117.21339 H 210.00001 V 64.317033 h -71.37312 v -51.55827 z" />
    <rect
       style="fill:#cdcdcd;fill-opacity:1;stroke:#ffffff;stroke-width:0;stroke-miterlimit:0"
       id="rect238-5-3-6"
       width="18.129383"
       height="1.8250022"
       x="5.3285832"
       y="23.951582"
       ry="0.9125011"
       clip-path="url(#clipPath4566-6)"
       transform="matrix(4.5110694,0,0,4.5110694,-30.333238,-18.119771)" />
    <rect
       style="fill:#cdcdcd;fill-opacity:1;stroke:#ffffff;stroke-width:0;stroke-miterlimit:0"
       id="rect238-5-3"
       width="75.488571"
       height="8.2327118"
       x="67.254562"
       y="12.758974"
       ry="4.1163559" />
    <rect
       style="fill:#14d03a;fill-opacity:1;stroke:#ffffff;stroke-width:0;stroke-miterlimit:0"
       id="rect238-5"
       width="85.401222"
       height="8.2327118"
       x="-98.160172"
       y="67.254562"
       ry="4.1163559"
       transform="rotate(-90)" />
    <rect
       style="fill:#cdcdcd;fill-opacity:1;stroke:#ffffff;stroke-width:0;stroke-miterlimit:0"
       id="rect238-5-3-6-4"
       width="18.285206"
       height="1.8250022"
       x="36.542034"
       y="17.361889"
       ry="0.9125011"
       clip-path="url(#clipPath4562-8)"
       transform="matrix(4.5110694,0,0,4.5110694,-30.333238,-18.119771)" />
    <rect
       style="fill:#e54e4e;fill-opacity:1;stroke:#ffffff;stroke-width:0;stroke-miterlimit:0"
       id="rect238-5-7-7"
       width="55.674656"
       height="8.2327118"
       x="-68.433609"
       y="134.51042"
       ry="4.1163559"
       transform="rotate(-90)" />
    <g
       aria-label="Salary"
       id="text238-2"
       style="font-size:11.1903px;line-height:1.25;fill:#14d03a;stroke-width:0.264583">
      <path
         d="m 24.505111,60.346945 h 1.649139 c -0.02384,-1.450447 -1.215991,-2.451852 -3.028057,-2.451852 -1.784249,0 -3.091638,0.985509 -3.083691,2.463773 -0.004,1.200096 0.842452,1.887569 2.217396,2.217396 l 0.886164,0.222535 c 0.886164,0.214587 1.378918,0.468912 1.382892,1.0173 -0.004,0.596074 -0.568257,1.001405 -1.442499,1.001405 -0.894112,0 -1.537872,-0.413279 -1.593505,-1.227913 h -1.665034 c 0.04371,1.760406 1.303415,2.670412 3.278408,2.670412 1.986914,0 3.155219,-0.949745 3.159193,-2.43993 -0.004,-1.355076 -1.025248,-2.074339 -2.43993,-2.392245 l -0.731185,-0.174848 c -0.707341,-0.162927 -1.299441,-0.4252 -1.28752,-1.009353 0,-0.524545 0.464938,-0.910006 1.307389,-0.910006 0.822583,0 1.327259,0.37354 1.39084,1.013326 z"
         style="font-weight:bold;font-family:Inter;-inkscape-font-specification:'Inter Bold'"
         id="path1132" />
      <path
         d="m 29.126667,66.260001 c 0.902059,0 1.486212,-0.393409 1.784249,-0.961666 h 0.04769 v 0.846425 h 1.605427 v -4.116886 c 0,-1.454421 -1.231887,-2.06639 -2.590936,-2.06639 -1.462369,0 -2.424035,0.699393 -2.658491,1.812065 l 1.565688,0.127163 c 0.115241,-0.405331 0.476859,-0.703368 1.084855,-0.703368 0.576205,0 0.906033,0.29009 0.906033,0.790792 v 0.02384 c 0,0.393409 -0.417252,0.445069 -1.478264,0.548388 -1.208044,0.111267 -2.292899,0.516598 -2.292899,1.879621 0,1.208044 0.862321,1.820013 2.026652,1.820013 z m 0.484807,-1.168305 c -0.520571,0 -0.894111,-0.242404 -0.894111,-0.707342 0,-0.476859 0.393409,-0.711315 0.989483,-0.794765 0.369566,-0.05166 0.973588,-0.139084 1.176253,-0.274194 v 0.647733 c 0,0.639787 -0.528519,1.128568 -1.271625,1.128568 z"
         style="font-weight:bold;font-family:Inter;-inkscape-font-specification:'Inter Bold'"
         id="path1134" />
      <path
         d="m 35.572215,58.00636 h -1.692851 v 8.1384 h 1.692851 z"
         style="font-weight:bold;font-family:Inter;-inkscape-font-specification:'Inter Bold'"
         id="path1136" />
      <path
         d="m 38.663846,66.260001 c 0.902059,0 1.486212,-0.393409 1.784249,-0.961666 h 0.04769 v 0.846425 h 1.605427 v -4.116886 c 0,-1.454421 -1.231887,-2.06639 -2.590936,-2.06639 -1.462369,0 -2.424035,0.699393 -2.658491,1.812065 l 1.565688,0.127163 c 0.115241,-0.405331 0.476859,-0.703368 1.084855,-0.703368 0.576205,0 0.906033,0.29009 0.906033,0.790792 v 0.02384 c 0,0.393409 -0.417252,0.445069 -1.478264,0.548388 -1.208044,0.111267 -2.292899,0.516598 -2.292899,1.879621 0,1.208044 0.862321,1.820013 2.026652,1.820013 z m 0.484807,-1.168305 c -0.520571,0 -0.894111,-0.242404 -0.894111,-0.707342 0,-0.476859 0.393409,-0.711315 0.989483,-0.794765 0.369566,-0.05166 0.973588,-0.139084 1.176253,-0.274194 v 0.647733 c 0,0.639787 -0.528519,1.128568 -1.271625,1.128568 z"
         style="font-weight:bold;font-family:Inter;-inkscape-font-specification:'Inter Bold'"
         id="path1138" />
      <path
         d="m 43.416544,66.14476 h 1.692851 v -3.453257 c 0,-0.751053 0.548388,-1.267651 1.295468,-1.267651 0.234456,0 0.556336,0.03974 0.715289,0.0914 v -1.502107 c -0.151005,-0.03576 -0.361618,-0.05961 -0.532493,-0.05961 -0.683498,0 -1.243808,0.397383 -1.466342,1.15241 h -0.06358 V 60.04096 h -1.641191 z"
         style="font-weight:bold;font-family:Inter;-inkscape-font-specification:'Inter Bold'"
         id="path1140" />
      <path
         d="m 49.226281,68.433685 c 1.259703,0 1.927307,-0.64376 2.27303,-1.629269 l 2.372375,-6.763456 h -1.792197 l -1.275598,4.482478 h -0.06358 L 49.476632,60.04096 h -1.780275 l 2.189579,6.278649 -0.09934,0.258298 c -0.222535,0.572232 -0.647734,0.600048 -1.243809,0.417252 l -0.381487,1.263678 c 0.242403,0.103319 0.635812,0.174848 1.064986,0.174848 z"
         style="font-weight:bold;font-family:Inter;-inkscape-font-specification:'Inter Bold'"
         id="path1142" />
    </g>
    <g
       aria-label="+€"
       id="text238-2-7"
       style="font-size:11.1903px;line-height:1.25;fill:#14d03a;stroke-width:0.264583">
      <path
         d="m 31.904325,51.783267 h 1.422631 v -2.102155 h 2.102155 v -1.42263 h -2.102155 v -2.102155 h -1.422631 v 2.102155 H 29.80217 v 1.42263 h 2.102155 z"
         style="font-weight:bold;font-family:Inter;-inkscape-font-specification:'Inter Bold'"
         id="path1127" />
      <path
         d="m 42.450865,47.686251 h -2.805523 c 0.266247,-0.949745 0.862321,-1.378919 1.669008,-1.378919 0.703368,0 1.215992,0.34175 1.533898,0.564284 l 0.635812,-1.359049 c -0.588126,-0.47686 -1.319311,-0.739132 -2.16971,-0.739132 -1.716694,0 -3.016135,1.061012 -3.417492,2.912816 h -0.83053 l -0.32188,0.870268 h 1.033195 c -0.0079,0.131136 -0.01192,0.266246 -0.01192,0.40533 0,0.131137 0.004,0.262273 0.01192,0.389436 h -0.711315 l -0.32188,0.890137 h 1.15241 c 0.401357,1.84783 1.700798,2.892947 3.417492,2.892947 0.818609,0 1.569662,-0.242404 2.145867,-0.719263 l -0.64376,-1.359049 c -0.290089,0.214587 -0.802713,0.544414 -1.502107,0.544414 -0.806687,0 -1.402761,-0.413278 -1.669008,-1.359049 h 1.613375 l 0.433147,-0.890137 h -2.185606 c -0.0079,-0.123189 -0.01192,-0.254325 -0.01192,-0.389436 0,-0.143057 0.004,-0.278168 0.01192,-0.40533 h 2.551198 z"
         style="font-weight:bold;font-family:Inter;-inkscape-font-specification:'Inter Bold'"
         id="path1129" />
    </g>
    <g
       aria-label="Payment"
       id="text238-2-6"
       style="font-size:11.1903px;line-height:1.25;fill:#e54e4e;stroke-width:0.265">
      <path
         d="m 152.48665,48.734711 h 1.72067 v -2.638622 h 1.44647 c 1.87168,0 2.96051,-1.116646 2.96051,-2.741942 0,-1.617348 -1.06896,-2.757836 -2.91679,-2.757836 h -3.21086 z m 1.72067,-4.017541 v -2.714124 h 1.16036 c 0.99346,0 1.47429,0.54044 1.47429,1.351101 0,0.806688 -0.48083,1.363023 -1.46634,1.363023 z"
         style="font-weight:bold;font-family:Inter;-inkscape-font-specification:'Inter Bold'"
         id="path1150" />
      <path
         d="m 161.28075,48.849952 c 0.90206,0 1.48621,-0.393409 1.78425,-0.961667 h 0.0477 v 0.846426 h 1.60542 v -4.116886 c 0,-1.454421 -1.23188,-2.066391 -2.59093,-2.066391 -1.46237,0 -2.42404,0.699394 -2.65849,1.812066 l 1.56569,0.127162 c 0.11524,-0.40533 0.47685,-0.703367 1.08485,-0.703367 0.57621,0 0.90603,0.290089 0.90603,0.790791 v 0.02384 c 0,0.393409 -0.41725,0.445069 -1.47826,0.548389 -1.20804,0.111267 -2.2929,0.516597 -2.2929,1.87962 0,1.208044 0.86232,1.820014 2.02665,1.820014 z m 0.48481,-1.168306 c -0.52057,0 -0.89411,-0.242403 -0.89411,-0.707341 0,-0.47686 0.39341,-0.711315 0.98948,-0.794766 0.36957,-0.05166 0.97359,-0.139084 1.17625,-0.274194 v 0.647734 c 0,0.639786 -0.52851,1.128567 -1.27162,1.128567 z"
         style="font-weight:bold;font-family:Inter;-inkscape-font-specification:'Inter Bold'"
         id="path1152" />
      <path
         d="m 166.85604,51.023636 c 1.2597,0 1.9273,-0.64376 2.27303,-1.62927 l 2.37237,-6.763455 h -1.7922 l -1.27559,4.482478 h -0.0636 l -1.26367,-4.482478 h -1.78028 l 2.18958,6.278648 -0.0993,0.258299 c -0.22254,0.572231 -0.64774,0.600048 -1.24381,0.417252 l -0.38149,1.263677 c 0.2424,0.10332 0.63581,0.174849 1.06499,0.174849 z"
         style="font-weight:bold;font-family:Inter;-inkscape-font-specification:'Inter Bold'"
         id="path1154" />
      <path
         d="m 172.36774,48.734711 h 1.69285 v -3.66387 c 0,-0.675551 0.42917,-1.124593 0.99345,-1.124593 0.55634,0 0.92988,0.381487 0.92988,0.981535 v 3.806928 h 1.64119 V 45.00726 c 0,-0.631839 0.36162,-1.061012 0.97756,-1.061012 0.54044,0 0.94577,0.337775 0.94577,1.0173 v 3.771163 h 1.68888 v -4.104965 c 0,-1.323285 -0.78682,-2.078312 -1.92333,-2.078312 -0.89411,0 -1.58953,0.45699 -1.83989,1.156384 h -0.0636 c -0.19471,-0.707341 -0.81861,-1.156384 -1.65708,-1.156384 -0.82259,0 -1.44648,0.437121 -1.7008,1.156384 h -0.0715 v -1.076907 h -1.61337 z"
         style="font-weight:bold;font-family:Inter;-inkscape-font-specification:'Inter Bold'"
         id="path1156" />
      <path
         d="m 185.35421,48.853926 c 1.51005,0 2.52735,-0.735159 2.76578,-1.8677 l -1.56569,-0.103319 c -0.17087,0.464938 -0.60799,0.707341 -1.17228,0.707341 -0.84642,0 -1.38289,-0.56031 -1.38289,-1.470316 v -0.004 h 4.15663 V 45.65102 c 0,-2.074338 -1.25573,-3.099586 -2.86911,-3.099586 -1.79617,0 -2.9605,1.275599 -2.9605,3.159193 0,1.935255 1.14844,3.143299 3.02806,3.143299 z m -1.35508,-3.787059 c 0.0358,-0.69542 0.56429,-1.251756 1.31534,-1.251756 0.73516,0 1.24381,0.524546 1.24778,1.251756 z"
         style="font-weight:bold;font-family:Inter;-inkscape-font-specification:'Inter Bold'"
         id="path1158" />
      <path
         d="m 190.95333,45.205951 c 0.004,-0.786818 0.47289,-1.247782 1.15639,-1.247782 0.67952,0 1.08882,0.445069 1.08485,1.192149 v 3.584393 h 1.69285 v -3.886404 c 0,-1.422631 -0.8345,-2.296873 -2.10613,-2.296873 -0.90603,0 -1.56171,0.445069 -1.83591,1.156384 h -0.0715 v -1.076907 h -1.61338 v 6.1038 h 1.69285 z"
         style="font-weight:bold;font-family:Inter;-inkscape-font-specification:'Inter Bold'"
         id="path1160" />
      <path
         d="m 199.46526,42.630911 h -1.14843 v -1.462369 h -1.69285 v 1.462369 h -0.83451 v 1.271625 h 0.83451 v 3.179062 c -0.008,1.196122 0.80668,1.788223 2.0346,1.736563 0.43712,-0.0159 0.74708,-0.103319 0.91795,-0.158953 l -0.26625,-1.259704 c -0.0834,0.0159 -0.26227,0.05563 -0.42122,0.05563 -0.33778,0 -0.57223,-0.127162 -0.57223,-0.596074 v -2.956528 h 1.14843 z"
         style="font-weight:bold;font-family:Inter;-inkscape-font-specification:'Inter Bold'"
         id="path1162" />
    </g>
    <g
       aria-label="-€"
       id="text238-2-7-9"
       style="font-size:11.1903px;line-height:1.25;fill:#e54e4e;stroke-width:0.265">
      <path
         d="m 170.46192,30.872291 h -3.71156 v 1.343154 h 3.71156 z"
         style="font-weight:bold;font-family:Inter;-inkscape-font-specification:'Inter Bold'"
         id="path1145" />
      <path
         d="m 177.26114,30.276216 h -2.80552 c 0.26624,-0.949744 0.86232,-1.378918 1.669,-1.378918 0.70337,0 1.21599,0.341749 1.5339,0.564284 l 0.63581,-1.35905 c -0.58812,-0.476859 -1.31931,-0.739132 -2.16971,-0.739132 -1.71669,0 -3.01613,1.061013 -3.41749,2.912816 h -0.83053 l -0.32188,0.870269 h 1.0332 c -0.008,0.131136 -0.0119,0.266246 -0.0119,0.40533 0,0.131137 0.004,0.262273 0.0119,0.389435 h -0.71132 l -0.32188,0.890138 h 1.15241 c 0.40136,1.84783 1.7008,2.892947 3.41749,2.892947 0.81861,0 1.56966,-0.242404 2.14587,-0.719263 l -0.64376,-1.359049 c -0.29009,0.214586 -0.80271,0.544414 -1.50211,0.544414 -0.80668,0 -1.40276,-0.413278 -1.669,-1.359049 h 1.61337 l 0.43315,-0.890138 h -2.18561 c -0.008,-0.123188 -0.0119,-0.254325 -0.0119,-0.389435 0,-0.143058 0.004,-0.278168 0.0119,-0.40533 h 2.5512 z"
         style="font-weight:bold;font-family:Inter;-inkscape-font-specification:'Inter Bold'"
         id="path1147" />
    </g>
    <rect
       style="fill:#636363;fill-opacity:1;stroke:#565d54;stroke-width:0;stroke-miterlimit:0;stroke-dasharray:none;stroke-opacity:0.242206"
       id="rect18804"
       width="1.8267659"
       height="48.779739"
       x="194.40627"
       y="68.433609"
       ry="0.1390955" />
    <rect
       style="fill:#636363;fill-opacity:1;stroke:#565d54;stroke-width:0;stroke-miterlimit:0;stroke-dasharray:none;stroke-opacity:0.242206"
       id="rect18804-6"
       width="1.8267659"
       height="48.779739"
       x="168.41565"
       y="68.433609"
       ry="0.1390955" />
    <rect
       style="fill:#636363;fill-opacity:1;stroke:#565d54;stroke-width:0;stroke-miterlimit:0;stroke-dasharray:none;stroke-opacity:0.242206"
       id="rect18804-6-9"
       width="1.8267659"
       height="48.779739"
       x="142.42509"
       y="68.433609"
       ry="0.1390955" />
    <rect
       style="fill:#636363;fill-opacity:1;stroke:#565d54;stroke-width:0;stroke-miterlimit:0;stroke-dasharray:none;stroke-opacity:0.242206"
       id="rect18804-6-4"
       width="1.8267659"
       height="96.221672"
       x="116.43451"
       y="20.991755"
       ry="0.27437624" />
    <rect
       style="fill:#636363;fill-opacity:1;stroke:#565d54;stroke-width:0;stroke-miterlimit:0;stroke-dasharray:none;stroke-opacity:0.242206"
       id="rect18804-6-9-2"
       width="1.8267659"
       height="96.221664"
       x="90.443893"
       y="20.991755"
       ry="0.27437618" />
    <rect
       style="fill:#636363;fill-opacity:1;stroke:#565d54;stroke-width:0;stroke-miterlimit:0;stroke-dasharray:none;stroke-opacity:0.242206"
       id="rect18804-6-5"
       width="1.8267659"
       height="19.052118"
       x="64.203064"
       y="98.160233"
       ry="0.054327141" />
    <rect
       style="fill:#636363;fill-opacity:1;stroke:#565d54;stroke-width:0;stroke-miterlimit:0;stroke-dasharray:none;stroke-opacity:0.242206"
       id="rect18804-6-9-0"
       width="1.8267659"
       height="19.052118"
       x="38.212479"
       y="98.160233"
       ry="0.054327141" />
    <rect
       style="fill:#636363;fill-opacity:1;stroke:#565d54;stroke-width:0;stroke-miterlimit:0;stroke-dasharray:none;stroke-opacity:0.242206"
       id="rect18804-6-4-7"
       width="1.8267659"
       height="19.052088"
       x="12.221897"
       y="98.160233"
       ry="0.05432706" />
  </g>
</svg>
