<?xml version="1.0" encoding="UTF-8" standalone="no"?>
<!-- Created with Inkscape (http://www.inkscape.org/) -->

<svg
   width="50mm"
   height="50mm"
   viewBox="0 0 50 50"
   version="1.1"
   id="svg385"
   inkscape:version="1.4 (86a8ad7, 2024-10-11)"
   sodipodi:docname="favicon.svg"
   inkscape:export-filename="favicon.png"
   inkscape:export-xdpi="300"
   inkscape:export-ydpi="300"
   xmlns:inkscape="http://www.inkscape.org/namespaces/inkscape"
   xmlns:sodipodi="http://sodipodi.sourceforge.net/DTD/sodipodi-0.dtd"
   xmlns="http://www.w3.org/2000/svg"
   xmlns:svg="http://www.w3.org/2000/svg">
  <sodipodi:namedview
     id="namedview387"
     pagecolor="#505050"
     bordercolor="#eeeeee"
     borderopacity="1"
     inkscape:showpageshadow="0"
     inkscape:pageopacity="0"
     inkscape:pagecheckerboard="0"
     inkscape:deskcolor="#505050"
     inkscape:document-units="mm"
     showgrid="false"
     inkscape:zoom="2.1493149"
     inkscape:cx="143.76674"
     inkscape:cy="173.54367"
     inkscape:window-width="2560"
     inkscape:window-height="1494"
     inkscape:window-x="-11"
     inkscape:window-y="-11"
     inkscape:window-maximized="1"
     inkscape:current-layer="layer1" />
  <defs
     id="defs382" />
  <g
     inkscape:label="Layer 1"
     inkscape:groupmode="layer"
     id="layer1">
    <rect
       style="fill:#000000;fill-opacity:1;stroke:#565d54;stroke-width:0;stroke-miterlimit:0;stroke-opacity:0.242206"
       id="rect579"
       width="50"
       height="50"
       x="-7.1054274e-15"
       y="0"
       ry="14.022973" />
    <path
       d="m 39.156238,15.112866 -0.0014,0.0014 c -0.512452,-0.01902 -1.032553,0.147984 -1.450031,0.504769 l -0.01087,0.01229 c -0.03725,0.03074 -0.0743,0.06225 -0.10965,0.09547 -0.0081,0.01142 -0.01642,0.02424 -0.02457,0.03545 l -0.01371,0.01088 -0.008,0.0071 c 0.0018,-0.0025 0.0028,-0.0065 0.0057,-0.0094 L 30.092155,23.183991 29.2055,22.300172 c -0.01359,-0.0055 -0.02819,-0.0096 -0.04206,-0.0099 -3.168756,-3.045567 -7.427109,-4.813582 -11.924969,-4.815175 h -0.0014 c -1.268143,0.0025 -2.517656,0.149307 -3.729056,0.421586 -0.01087,0.0025 -0.02164,0.0021 -0.03497,0.0071 -1.641816,0.330289 -3.148518,1.134833 -4.330714,2.315418 l -0.00137,0.0015 0.00567,-0.0015 c -1.5854511,1.582274 -2.4749569,3.724719 -2.4756383,5.958925 8.707e-4,4.018291 2.846956,7.48027 6.8058793,8.276233 0.01359,0.0025 0.02211,8.12e-4 0.03545,0.0071 1.2108,0.272226 2.460145,0.419431 3.727636,0.423004 l 0.01088,-0.0019 c 4.518226,-0.01279 8.795865,-1.799002 11.961333,-4.876602 0.0017,6.95e-4 8.37e-4,0.0022 0.0057,0.0024 l 0.216465,-0.224973 c 0.03508,-0.03528 0.07684,-0.06913 0.116267,-0.108232 l -0.0015,-0.0043 0.549669,-0.544943 5.144111,5.142693 a 2.113914,2.113914 0 0 0 2.988443,0 2.113914,2.113914 0 0 0 0.120521,-0.139427 l 1.264759,-1.258614 0.0057,0.0057 3.091004,-3.091476 a 2.113914,2.113914 0 0 0 0.140372,-2.826803 c -5.45e-4,-7.02e-4 -0.0019,-6.64e-4 -0.0024,-0.0014 a 2.113914,2.113914 0 0 0 -0.136591,-0.160222 2.113914,2.113914 0 0 0 -2.98986,0 l -2.988915,2.987024 -0.664519,-0.6631 -2.971428,-2.973318 c 0.0055,-0.0088 0.01358,-0.0158 0.02174,-0.02505 l 7.429752,-7.39525 0.01371,-0.01276 v -0.0014 c 0.824892,-0.824545 0.824892,-2.161059 0,-2.985607 -0.38915,-0.387478 -0.894151,-0.592867 -1.406548,-0.613002 z M 17.24934,21.400742 h 4.72e-4 l 9.15e-4,0.0015 c 2.054344,7.7e-4 3.986867,0.541713 5.7245,1.478387 1.51737,0.817925 2.886336,1.936181 4.049499,3.268241 -1.15786,1.338932 -2.523888,2.465681 -4.038155,3.29329 -1.737554,0.949475 -3.673171,1.50458 -5.733008,1.511945 -0.969654,-0.0025 -1.911757,-0.125702 -2.819714,-0.354001 -0.01087,-0.0024 -0.0194,-0.0048 -0.02836,-0.0071 -0.375062,-0.06463 -0.740659,-0.176935 -1.087524,-0.333205 -1.617535,-0.721322 -2.659804,-2.31953 -2.665163,-4.083055 0.0026,-1.132547 0.436497,-2.21627 1.202844,-3.038069 0.109307,-0.117434 0.225565,-0.22803 0.34833,-0.33415 h 0.0015 c 0.323073,-0.279007 0.684636,-0.509452 1.073344,-0.687205 0.359833,-0.166348 0.73912,-0.283832 1.130059,-0.351164 0.03507,-0.0077 0.06781,-0.02181 0.102089,-0.0293 0.882494,-0.215474 1.797948,-0.332942 2.738421,-0.336041 z"
       style="display:inline;fill:#ffffff;fill-opacity:1;stroke-width:2.79468;stroke-linecap:round;stroke-linejoin:round;stroke-miterlimit:2.3"
       id="path30" />
    <path
       d="m 15.543121,23.639119 c -0.676748,0 -1.295214,0.276602 -1.743778,0.723574 -0.448585,0.446964 -0.726085,1.06428 -0.726085,1.746286 0,1.364076 1.116364,2.472385 2.469863,2.472385 1.353476,0 2.465329,-1.108245 2.465256,-2.472385 0,-1.364011 -1.111948,-2.469714 -2.465256,-2.46986 z"
       style="display:inline;fill:#ffffff;fill-opacity:1;stroke-width:2.47741;stroke-linecap:round;stroke-linejoin:round;stroke-miterlimit:2.3"
       id="path32-0" />
  </g>
</svg>
