<?xml version="1.0" encoding="UTF-8" standalone="no"?>
<!-- Created with Inkscape (http://www.inkscape.org/) -->

<svg
   width="210mm"
   height="117.213mm"
   viewBox="0 0 210 117.213"
   version="1.1"
   id="svg2064"
   inkscape:version="1.2.2 (732a01da63, 2022-12-09)"
   sodipodi:docname="light_walkthrough_3.svg"
   xmlns:inkscape="http://www.inkscape.org/namespaces/inkscape"
   xmlns:sodipodi="http://sodipodi.sourceforge.net/DTD/sodipodi-0.dtd"
   xmlns="http://www.w3.org/2000/svg"
   xmlns:svg="http://www.w3.org/2000/svg">
  <sodipodi:namedview
     id="namedview2066"
     pagecolor="#505050"
     bordercolor="#eeeeee"
     borderopacity="1"
     inkscape:showpageshadow="0"
     inkscape:pageopacity="0"
     inkscape:pagecheckerboard="0"
     inkscape:deskcolor="#505050"
     inkscape:document-units="mm"
     showgrid="false"
     inkscape:zoom="0.53732874"
     inkscape:cx="273.57554"
     inkscape:cy="616.01023"
     inkscape:window-width="1415"
     inkscape:window-height="975"
     inkscape:window-x="78"
     inkscape:window-y="-7"
     inkscape:window-maximized="1"
     inkscape:current-layer="layer1" />
  <defs
     id="defs2061">
    <clipPath
       clipPathUnits="userSpaceOnUse"
       id="clipPath13683-99-7">
      <rect
         style="display:inline;fill:#c822c7;fill-opacity:0.242206;stroke:#565d54;stroke-width:0;stroke-miterlimit:0;stroke-dasharray:none;stroke-opacity:0.242206"
         id="rect13685-7-1"
         width="46.551689"
         height="25.983278"
         x="6.7241554"
         y="2.0083609"
         ry="0"
         transform="rotate(-15)" />
    </clipPath>
    <clipPath
       clipPathUnits="userSpaceOnUse"
       id="clipPath13679-9-5">
      <rect
         style="display:inline;fill:#c822c7;fill-opacity:0.242206;stroke:#565d54;stroke-width:0;stroke-miterlimit:0;stroke-dasharray:none;stroke-opacity:0.242206"
         id="rect13681-5-4"
         width="46.551689"
         height="25.983278"
         x="6.7241554"
         y="2.0083609"
         ry="0"
         transform="rotate(-15)" />
    </clipPath>
  </defs>
  <g
     inkscape:label="Layer 1"
     inkscape:groupmode="layer"
     id="layer1">
    <rect
       style="display:inline;fill:#ffffff;fill-opacity:1;stroke:#565d54;stroke-width:0;stroke-miterlimit:0;stroke-dasharray:none;stroke-opacity:0.242206"
       id="rect9114-4-5-2"
       width="209.99928"
       height="117.21314"
       x="5e-07"
       y="5e-07"
       ry="0" />
    <path
       id="path13963-5"
       style="display:inline;fill:#c822c7;fill-opacity:0.242206;stroke:#565d54;stroke-width:0;stroke-miterlimit:0;stroke-dasharray:none;stroke-opacity:0.242206"
       d="m 209.99939,105.30805 -4.60408,-1.2332 -29.55699,-7.921313 c -0.0135,-0.004 -0.0315,-0.009 -0.0464,-0.0135 l -37.46431,-10.03805 c -0.17278,-0.0465 -0.3451,-0.0803 -0.51752,-0.10241 -0.17232,-0.0226 -0.34464,-0.0316 -0.51516,-0.0361 h -0.003 c -0.0694,-0.003 -0.13939,-0.004 -0.20977,-0.004 H 67.648669 c -0.03609,0 -0.07308,0.004 -0.109614,0.004 L 0.97931453,68.127874 C 0.77270617,68.072391 0.56519551,68.034492 0.35921881,68.011484 0.23877221,67.997945 0.1196794,67.997945 1.3522876e-4,67.997945 v 8.389882 L 65.916453,94.051177 c 0.232321,0.0623 0.463695,0.10331 0.694709,0.1236 0.230968,0.018 0.461486,0.018 0.687717,0.002 0.115484,0.009 0.231419,0.018 0.34961,0.018 h 69.061051 l 66.55505,17.833513 c 0.0135,0.004 0.0315,0.009 0.0464,0.0135 l 6.68815,1.79267 z" />
    <path
       id="path13961-8"
       style="display:inline;fill:#b0b0b0;fill-opacity:0.242206;stroke:#565d54;stroke-width:0;stroke-miterlimit:0;stroke-dasharray:none;stroke-opacity:0.242206"
       d="m 209.99939,11.904857 -54.54487,14.616467 c -0.0226,0.0064 -0.0482,0.01034 -0.0722,0.01624 l -20.71247,5.550551 c -0.005,0.0013 -0.009,0.0033 -0.0135,0.0045 l -0.67141,0.179512 -66.396569,17.79155 c -0.176384,0.04737 -0.353219,0.0803 -0.529153,0.102404 -0.175932,0.02256 -0.350512,0.03609 -0.524505,0.03609 -0.03158,0.0015 -0.06676,0.0017 -0.100146,0.0023 -0.03609,-6.76e-4 -0.06856,-8.11e-4 -0.102404,-0.0023 -0.174128,-9.02e-4 -0.348708,-0.01353 -0.52455,-0.03609 -0.175934,-0.02256 -0.352768,-0.05548 -0.529153,-0.102404 L 9.0214443e-4,32.573104 v 35.424535 c 0.11954442557,0.0028 0.23818602557,4.5e-4 0.35908344557,0.01353 0.20615727,0.02256 0.41366781,0.06135 0.62009573,0.11639 L 67.539772,85.963357 c 0.03609,-9.4e-4 0.07263,-0.004 0.109614,-0.004 h 69.434074 c 0.0703,0 0.1403,0.004 0.20977,0.009 h 0.003 c 0.17052,0.002 0.34284,0.0135 0.51521,0.0361 0.17232,0.0226 0.34466,0.0564 0.51751,0.10241 l 37.46432,10.03805 c 0.0135,0.004 0.0315,0.009 0.0465,0.0135 l 29.55694,7.921363 4.60407,1.23315 z" />
    <path
       id="path13958-2"
       style="display:inline;fill:#c822c7;fill-opacity:0.242206;stroke:#565d54;stroke-width:0;stroke-miterlimit:0;stroke-dasharray:none;stroke-opacity:0.242206"
       d="m 209.99939,3.3820819 -11.07778,2.967586 -45.59778,12.2176861 c -0.009,0.002 -0.0135,0.005 -0.0226,0.0073 L 131.85442,24.321 c -0.005,0.0013 -0.009,0.0033 -0.0135,0.0045 L 66.435319,41.851127 0.34180586,24.141196 c -0.11367961,-0.03023 -0.22690827,-0.05174 -0.34013679,-0.07226 v 8.504131 L 65.279215,50.063858 c 0.176384,0.04737 0.353219,0.0803 0.529197,0.102405 0.175932,0.02256 0.350512,0.03609 0.524505,0.03609 0.03158,0.0015 0.06856,0.0017 0.102404,0.0023 0.03158,-6.77e-4 0.06676,-8.58e-4 0.100146,-0.0023 0.174128,-8.58e-4 0.348708,-0.01354 0.524505,-0.03609 0.175933,-0.02255 0.352769,-0.05548 0.529152,-0.102405 l 66.396566,-17.791504 0.67135,-0.179543 c 0.004,-0.0013 0.009,-0.0034 0.0135,-0.0045 l 20.71249,-5.550542 c 0.0226,-0.0059 0.0482,-0.01 0.0722,-0.01624 L 210.0001,11.905062 Z" />
    <rect
       style="fill:#e3e3e3;fill-opacity:1;stroke:#565d54;stroke-width:0;stroke-miterlimit:0;stroke-dasharray:none;stroke-opacity:0.242206"
       id="rect18804-2-4"
       width="1.8267781"
       height="57.037682"
       x="112.72887"
       y="33.608227"
       ry="0.16264305" />
    <rect
       style="fill:#e3e3e3;fill-opacity:1;stroke:#565d54;stroke-width:0;stroke-miterlimit:0;stroke-dasharray:none;stroke-opacity:0.242206"
       id="rect18804-6-0-8"
       width="1.8267781"
       height="48.78006"
       x="86.738091"
       y="41.865822"
       ry="0.13909641" />
    <rect
       style="fill:#e3e3e3;fill-opacity:1;stroke:#565d54;stroke-width:0;stroke-miterlimit:0;stroke-dasharray:none;stroke-opacity:0.242206"
       id="rect18804-6-9-1-5"
       width="1.8267781"
       height="48.78006"
       x="60.747307"
       y="41.865822"
       ry="0.13909641" />
    <rect
       style="fill:#e3e3e3;fill-opacity:1;stroke:#565d54;stroke-width:0;stroke-miterlimit:0;stroke-dasharray:none;stroke-opacity:0.242206"
       id="rect18804-6-4-9-8"
       width="1.8267781"
       height="42.903049"
       x="34.756516"
       y="37.155029"
       ry="0.12233812" />
    <rect
       style="fill:#e3e3e3;fill-opacity:1;stroke:#565d54;stroke-width:0;stroke-miterlimit:0;stroke-dasharray:none;stroke-opacity:0.242206"
       id="rect18804-6-9-2-5-2"
       width="1.8267781"
       height="42.654358"
       x="8.7657232"
       y="28.876793"
       ry="0.12162898" />
    <rect
       style="fill:#e3e3e3;fill-opacity:1;stroke:#565d54;stroke-width:0;stroke-miterlimit:0;stroke-dasharray:none;stroke-opacity:0.242206"
       id="rect18804-6-0-5-6"
       width="1.8267781"
       height="90.125679"
       x="190.70119"
       y="12.192174"
       ry="0.25699353" />
    <rect
       style="fill:#e3e3e3;fill-opacity:1;stroke:#565d54;stroke-width:0;stroke-miterlimit:0;stroke-dasharray:none;stroke-opacity:0.242206"
       id="rect18804-6-9-1-8-2"
       width="1.8267781"
       height="76.869827"
       x="164.7104"
       y="18.708851"
       ry="0.21919443" />
    <rect
       style="fill:#e3e3e3;fill-opacity:1;stroke:#565d54;stroke-width:0;stroke-miterlimit:0;stroke-dasharray:none;stroke-opacity:0.242206"
       id="rect18804-6-4-9-7-2"
       width="1.8267781"
       height="61.33815"
       x="138.71968"
       y="27.937481"
       ry="0.17490582" />
    <text
       xml:space="preserve"
       style="font-style:normal;font-weight:normal;font-size:11.1903px;line-height:1.25;font-family:sans-serif;fill:#53dcfd;fill-opacity:1;stroke:none;stroke-width:0.264583"
       x="143.01746"
       y="70.265488"
       id="text238-2-3-6-5-7"><tspan
         sodipodi:role="line"
         style="font-style:normal;font-variant:normal;font-weight:bold;font-stretch:normal;font-family:Inter;-inkscape-font-specification:'Inter Bold';fill:#53dcfd;fill-opacity:1;stroke-width:0.264583"
         x="143.01746"
         y="70.265488"
         id="tspan708-9-1-9-6-6">Net Worth</tspan></text>
    <text
       xml:space="preserve"
       style="font-style:normal;font-weight:normal;font-size:11.1903px;line-height:1.25;font-family:sans-serif;fill:#53dcfd;fill-opacity:1;stroke:none;stroke-width:0.264583"
       x="154.39624"
       y="57.143745"
       id="text238-2-7-7-2-9-7"><tspan
         sodipodi:role="line"
         style="font-style:normal;font-variant:normal;font-weight:bold;font-stretch:normal;font-family:Inter;-inkscape-font-specification:'Inter Bold';fill:#53dcfd;fill-opacity:1;stroke-width:0.264583"
         x="154.39624"
         y="57.143745"
         id="tspan708-9-4-6-9-0-5">****€</tspan></text>
    <path
       id="rect12860-7-2"
       clip-path="url(#clipPath13683-99-7)"
       style="fill:#939393;fill-opacity:1;stroke:#565d54;stroke-width:0;stroke-miterlimit:0;stroke-dasharray:none;stroke-opacity:0.242206"
       d="m 10.908343,14.948051 c -0.371902,0.11519 -0.640678,0.460702 -0.640678,0.871441 0,0.505524 0.407219,0.912623 0.912744,0.912623 l 15.391785,5e-5 c 0.106549,0 0.208317,-0.01909 0.303222,-0.05236 0.02527,-0.0046 0.05054,-0.0098 0.07581,-0.01657 l 14.787496,-3.962298 15.27408,2.5e-5 c 0.0036,0 0.0071,-1.39e-4 0.01065,-1.79e-4 l 8.597857,-1.05e-4 c 0.505524,0 0.912756,-0.406721 0.912756,-0.912245 0,-0.505525 -0.407219,-0.912623 -0.912744,-0.912623 l -8.608509,2.85e-4 -6.783276,-3.35e-4 c -0.0036,0 -0.0071,1.38e-4 -0.01065,1.79e-4 l -8.597857,1.05e-4 c -0.07926,0 -0.155792,0.01098 -0.229017,0.0298 -1.67e-4,4.2e-5 -3.32e-4,9e-5 -4.99e-4,1.33e-4 -0.0151,0.0033 -0.03023,0.0065 -0.04533,0.01054 L 26.478826,14.90022 c -0.0079,0.0021 -0.01542,0.005 -0.02319,0.0073 l -15.275211,-2.57e-4 c -0.09479,0 -0.186255,0.01422 -0.272079,0.0408 z"
       transform="matrix(4.3573872,1.1675584,-1.1675584,4.3573872,-30.333158,-9.8822911)" />
    <path
       id="rect12860-8-2-6"
       clip-path="url(#clipPath13679-9-5)"
       style="fill:#939393;fill-opacity:1;stroke:#565d54;stroke-width:0;stroke-miterlimit:0;stroke-dasharray:none;stroke-opacity:0.242206"
       d="m 54.543088,-12.241544 c -0.08762,0.01989 -0.174076,0.05281 -0.256163,0.100203 l -4.267135,2.4637406 -9.062516,5.2321963 c -0.0016,8.987e-4 -0.003,0.00193 -0.0046,0.00283 l -4.262545,2.4609053 c -9.42e-4,5.441e-4 -0.0018,0.00125 -0.0027,0.0018 L 23.688111,5.525372 8.5199533,5.5253198 c -0.5055244,0 -0.9126226,0.4072193 -0.9126226,0.9127438 0,0.5055244 0.4070856,0.9121234 0.91261,0.9121234 l 15.3917853,5.08e-5 c 0.08088,0 0.158935,-0.01143 0.233509,-0.031004 0.0074,-0.00163 0.01474,-0.00357 0.0221,-0.00539 0.0071,-0.00206 0.01429,-0.00402 0.02133,-0.00625 0.07437,-0.020336 0.14768,-0.049463 0.217727,-0.089905 l 13.196194,-7.61898195 0.133458,-0.0769546 c 9.52e-4,-5.499e-4 0.0018,-0.001248 0.0027,-0.001801 L 41.85529,-2.8568941 c 0.0048,-0.00265 0.0098,-0.0049 0.01454,-0.00764 L 55.199481,-10.56047 c 0.437797,-0.252763 0.586911,-0.80893 0.334148,-1.246727 -0.205369,-0.35571 -0.610892,-0.520544 -0.990563,-0.434351 z"
       transform="matrix(4.3573872,1.1675584,-1.1675584,4.3573872,-30.333158,-9.8822911)" />
    <rect
       style="fill:#53dcfd;fill-opacity:1;stroke:#ffffff;stroke-width:0;stroke-miterlimit:0"
       id="rect238-5-8-9"
       width="68.863304"
       height="8.2327662"
       x="-94.193008"
       y="123.04468"
       ry="4.1163831"
       transform="rotate(-90)" />
  </g>
</svg>
