<?xml version="1.0" encoding="UTF-8" standalone="no"?>
<!-- Created with Inkscape (http://www.inkscape.org/) -->

<svg
   width="210mm"
   height="117.213mm"
   viewBox="0 0 210 117.213"
   version="1.1"
   id="svg1478"
   inkscape:version="1.2.2 (732a01da63, 2022-12-09)"
   sodipodi:docname="light_walkthrough_1.svg"
   xmlns:inkscape="http://www.inkscape.org/namespaces/inkscape"
   xmlns:sodipodi="http://sodipodi.sourceforge.net/DTD/sodipodi-0.dtd"
   xmlns:xlink="http://www.w3.org/1999/xlink"
   xmlns="http://www.w3.org/2000/svg"
   xmlns:svg="http://www.w3.org/2000/svg">
  <sodipodi:namedview
     id="namedview1480"
     pagecolor="#505050"
     bordercolor="#eeeeee"
     borderopacity="1"
     inkscape:showpageshadow="0"
     inkscape:pageopacity="0"
     inkscape:pagecheckerboard="0"
     inkscape:deskcolor="#505050"
     inkscape:document-units="mm"
     showgrid="false"
     inkscape:zoom="0.75989759"
     inkscape:cx="167.12778"
     inkscape:cy="210.55469"
     inkscape:window-width="1415"
     inkscape:window-height="975"
     inkscape:window-x="78"
     inkscape:window-y="-7"
     inkscape:window-maximized="1"
     inkscape:current-layer="layer1" />
  <defs
     id="defs1475">
    <linearGradient
       inkscape:collect="always"
       xlink:href="#linearGradient21460"
       id="linearGradient20664"
       gradientUnits="userSpaceOnUse"
       gradientTransform="matrix(4.5110645,0,0,4.5110645,-30.333184,-18.119686)"
       x1="30.543722"
       y1="-36.139404"
       x2="30.543722"
       y2="34.526325" />
    <linearGradient
       inkscape:collect="always"
       id="linearGradient21460">
      <stop
         style="stop-color:#c8c8c8;stop-opacity:1;"
         offset="0"
         id="stop21456" />
      <stop
         style="stop-color:#313131;stop-opacity:0;"
         offset="1"
         id="stop21458" />
    </linearGradient>
    <clipPath
       clipPathUnits="userSpaceOnUse"
       id="clipPath4566-6-3">
      <rect
         style="fill:#cdcdcd;fill-opacity:0.282974;stroke:#2a2a2a;stroke-width:0;stroke-miterlimit:0;stroke-opacity:1"
         id="rect4568-9-5"
         width="46.551727"
         height="30.000002"
         x="6.7241373"
         y="0"
         ry="3.4271836"
         rx="3.4271836" />
    </clipPath>
    <clipPath
       clipPathUnits="userSpaceOnUse"
       id="clipPath4562-8-6">
      <rect
         style="fill:#cdcdcd;fill-opacity:0.282974;stroke:#2a2a2a;stroke-width:0;stroke-miterlimit:0;stroke-opacity:1"
         id="rect4564-8-1"
         width="46.551727"
         height="30.000002"
         x="6.7241373"
         y="0"
         ry="3.4271836"
         rx="3.4271836" />
    </clipPath>
  </defs>
  <g
     inkscape:label="Layer 1"
     inkscape:groupmode="layer"
     id="layer1">
    <rect
       style="display:inline;fill:#ffffff;fill-opacity:1;stroke:#565d54;stroke-width:0;stroke-miterlimit:0;stroke-dasharray:none;stroke-opacity:0.242206"
       id="rect9114-8-4"
       width="209.99767"
       height="117.21224"
       x="5e-07"
       y="5e-07"
       ry="0" />
    <path
       id="rect1680-0"
       style="fill:url(#linearGradient20664);fill-opacity:1;stroke:#ffffff;stroke-width:0;stroke-miterlimit:0"
       d="M 71.370543,12.758814 V 94.043911 H -1.6937242e-4 V 117.21329 H 209.99984 V 64.317041 H 138.62677 V 12.758814 Z" />
    <rect
       style="fill:#939393;fill-opacity:1;stroke:#ffffff;stroke-width:0;stroke-miterlimit:0"
       id="rect238-5-3-6-0"
       width="18.129383"
       height="1.8250022"
       x="5.3285832"
       y="23.951582"
       ry="0.9125011"
       clip-path="url(#clipPath4566-6-3)"
       transform="matrix(4.5110643,0,0,4.5110643,-30.333181,-18.119694)" />
    <rect
       style="fill:#939393;fill-opacity:1;stroke:#ffffff;stroke-width:0;stroke-miterlimit:0"
       id="rect238-5-3-3"
       width="75.48848"
       height="8.2327023"
       x="67.254509"
       y="12.759041"
       ry="4.1163511" />
    <rect
       style="fill:#49ea69;fill-opacity:1;stroke:#ffffff;stroke-width:0;stroke-miterlimit:0"
       id="rect238-5-9"
       width="85.401131"
       height="8.2327023"
       x="-98.160126"
       y="67.254532"
       ry="4.1163511"
       transform="rotate(-90)" />
    <rect
       style="fill:#939393;fill-opacity:1;stroke:#ffffff;stroke-width:0;stroke-miterlimit:0"
       id="rect238-5-3-6-4-5"
       width="18.285206"
       height="1.8250022"
       x="36.542034"
       y="17.361889"
       ry="0.9125011"
       clip-path="url(#clipPath4562-8-6)"
       transform="matrix(4.5110643,0,0,4.5110643,-30.333181,-18.119694)" />
    <rect
       style="fill:#f06c6c;fill-opacity:1;stroke:#ffffff;stroke-width:0;stroke-miterlimit:0"
       id="rect238-5-7-7-2"
       width="55.674595"
       height="8.2327023"
       x="-68.433601"
       y="134.5103"
       ry="4.1163511"
       transform="rotate(-90)" />
    <g
       aria-label="Salary"
       id="text238-2-70"
       style="font-size:11.1902px;line-height:1.25;fill:#49ea69;stroke-width:0.264583">
      <path
         d="m 24.505043,60.346928 h 1.649123 c -0.02384,-1.450434 -1.21598,-2.45183 -3.028029,-2.45183 -1.784233,0 -3.091611,0.985501 -3.083663,2.463751 -0.004,1.200086 0.842444,1.887552 2.217376,2.217377 l 0.886155,0.222532 c 0.886156,0.214585 1.378907,0.468908 1.38288,1.017291 -0.004,0.596069 -0.568252,1.001396 -1.442486,1.001396 -0.894104,0 -1.537858,-0.413275 -1.593491,-1.227902 h -1.665019 c 0.04371,1.76039 1.303404,2.670388 3.278379,2.670388 1.986896,0 3.155191,-0.949736 3.159165,-2.439908 -0.004,-1.355063 -1.025239,-2.07432 -2.439909,-2.392223 l -0.731178,-0.174847 c -0.707335,-0.162926 -1.29943,-0.425196 -1.287509,-1.009343 0,-0.524541 0.464934,-0.909999 1.307378,-0.909999 0.822575,0 1.327247,0.373537 1.390828,1.013317 z"
         style="font-weight:bold;font-family:Inter;-inkscape-font-specification:'Inter Bold'"
         id="path1041" />
      <path
         d="m 29.126558,66.259931 c 0.90205,0 1.486198,-0.393405 1.784232,-0.961657 h 0.04769 v 0.846417 h 1.605412 v -4.116849 c 0,-1.454408 -1.231876,-2.066372 -2.590913,-2.066372 -1.462355,0 -2.424013,0.699388 -2.658467,1.81205 l 1.565674,0.127161 c 0.11524,-0.405327 0.476856,-0.703361 1.084846,-0.703361 0.5762,0 0.906024,0.290087 0.906024,0.790784 v 0.02384 c 0,0.393406 -0.417248,0.445065 -1.47825,0.548384 -1.208033,0.111266 -2.292879,0.516593 -2.292879,1.879603 0,1.208033 0.862313,1.819997 2.026635,1.819997 z m 0.484802,-1.168295 c -0.520567,0 -0.894103,-0.242401 -0.894103,-0.707335 0,-0.476855 0.393405,-0.711309 0.989474,-0.794758 0.369563,-0.05166 0.973579,-0.139083 1.176243,-0.274192 v 0.647728 c 0,0.639781 -0.528515,1.128557 -1.271614,1.128557 z"
         style="font-weight:bold;font-family:Inter;-inkscape-font-specification:'Inter Bold'"
         id="path1043" />
      <path
         d="m 35.572047,58.006364 h -1.692836 v 8.138327 h 1.692836 z"
         style="font-weight:bold;font-family:Inter;-inkscape-font-specification:'Inter Bold'"
         id="path1045" />
      <path
         d="m 38.663651,66.259931 c 0.902051,0 1.486199,-0.393405 1.784233,-0.961657 h 0.04769 v 0.846417 h 1.605412 v -4.116849 c 0,-1.454408 -1.231876,-2.066372 -2.590913,-2.066372 -1.462356,0 -2.424013,0.699388 -2.658467,1.81205 l 1.565674,0.127161 c 0.11524,-0.405327 0.476855,-0.703361 1.084845,-0.703361 0.5762,0 0.906025,0.290087 0.906025,0.790784 v 0.02384 c 0,0.393406 -0.417248,0.445065 -1.478251,0.548384 -1.208033,0.111266 -2.292878,0.516593 -2.292878,1.879603 0,1.208033 0.862313,1.819997 2.026634,1.819997 z m 0.484803,-1.168295 c -0.520567,0 -0.894103,-0.242401 -0.894103,-0.707335 0,-0.476855 0.393405,-0.711309 0.989474,-0.794758 0.369563,-0.05166 0.973579,-0.139083 1.176242,-0.274192 v 0.647728 c 0,0.639781 -0.528514,1.128557 -1.271613,1.128557 z"
         style="font-weight:bold;font-family:Inter;-inkscape-font-specification:'Inter Bold'"
         id="path1047" />
      <path
         d="m 43.416306,66.144691 h 1.692835 v -3.453225 c 0,-0.751047 0.548384,-1.26764 1.295457,-1.26764 0.234453,0 0.556331,0.03974 0.715282,0.0914 V 60.01313 c -0.151004,-0.03576 -0.361615,-0.05961 -0.532488,-0.05961 -0.683492,0 -1.243797,0.397379 -1.466329,1.152399 h -0.06358 v -1.064976 h -1.641176 z"
         style="font-weight:bold;font-family:Inter;-inkscape-font-specification:'Inter Bold'"
         id="path1049" />
      <path
         d="m 49.225991,68.433596 c 1.259692,0 1.927289,-0.643754 2.273009,-1.629255 l 2.372354,-6.763395 h -1.79218 l -1.275588,4.482438 h -0.06358 L 49.47634,60.040946 h -1.780259 l 2.189559,6.278592 -0.09934,0.258297 c -0.222533,0.572226 -0.647729,0.600043 -1.243797,0.417248 l -0.381485,1.263666 c 0.242402,0.103319 0.635807,0.174847 1.064977,0.174847 z"
         style="font-weight:bold;font-family:Inter;-inkscape-font-specification:'Inter Bold'"
         id="path1051" />
    </g>
    <g
       aria-label="+€"
       id="text238-2-7-8"
       style="font-size:11.1902px;line-height:1.25;fill:#49ea69;stroke-width:0.264583">
      <path
         d="m 31.904271,51.783256 h 1.422618 v -2.102137 h 2.102136 v -1.422617 h -2.102136 v -2.102137 h -1.422618 v 2.102137 h -2.102136 v 1.422617 h 2.102136 z"
         style="font-weight:bold;font-family:Inter;-inkscape-font-specification:'Inter Bold'"
         id="path1054" />
      <path
         d="m 42.450716,47.686276 h -2.805497 c 0.266244,-0.949737 0.862313,-1.378907 1.668992,-1.378907 0.703362,0 1.215981,0.341747 1.533884,0.564279 l 0.635807,-1.359037 c -0.588121,-0.476855 -1.319299,-0.739125 -2.169691,-0.739125 -1.716678,0 -3.016108,1.061002 -3.417461,2.91279 h -0.830523 l -0.321877,0.87026 h 1.033186 c -0.0079,0.131135 -0.01192,0.266244 -0.01192,0.405327 0,0.131135 0.004,0.26227 0.01192,0.389432 h -0.711309 l -0.321877,0.890129 h 1.1524 c 0.401353,1.847814 1.700783,2.892921 3.417461,2.892921 0.818602,0 1.569648,-0.242401 2.145848,-0.719256 l -0.643754,-1.359037 c -0.290087,0.214584 -0.802706,0.544409 -1.502094,0.544409 -0.806679,0 -1.402748,-0.413274 -1.668992,-1.359037 h 1.613359 l 0.433144,-0.890129 h -2.185586 c -0.0079,-0.123188 -0.01192,-0.254323 -0.01192,-0.389432 0,-0.143057 0.004,-0.278166 0.01192,-0.405327 h 2.551175 z"
         style="font-weight:bold;font-family:Inter;-inkscape-font-specification:'Inter Bold'"
         id="path1056" />
    </g>
    <g
       aria-label="Payment"
       id="text238-2-6-1"
       style="font-size:11.1902px;line-height:1.25;fill:#f06c6c;stroke-width:0.265">
      <path
         d="m 152.48654,48.734695 h 1.72065 v -2.638598 h 1.44646 c 1.87166,0 2.96048,-1.116636 2.96048,-2.741917 0,-1.617333 -1.06895,-2.757812 -2.91677,-2.757812 h -3.21082 z m 1.72065,-4.017504 v -2.7141 h 1.16035 c 0.99345,0 1.47428,0.540436 1.47428,1.351089 0,0.80668 -0.48083,1.363011 -1.46633,1.363011 z"
         style="font-weight:bold;font-family:Inter;-inkscape-font-specification:'Inter Bold'"
         id="path1059" />
      <path
         d="m 161.28056,48.849935 c 0.90205,0 1.4862,-0.393405 1.78423,-0.961657 h 0.0477 v 0.846417 h 1.60541 v -4.116849 c 0,-1.454408 -1.23187,-2.066372 -2.59091,-2.066372 -1.46236,0 -2.42401,0.699388 -2.65847,1.81205 l 1.56568,0.127161 c 0.11524,-0.405327 0.47685,-0.703361 1.08484,-0.703361 0.5762,0 0.90603,0.290087 0.90603,0.790784 v 0.02384 c 0,0.393406 -0.41725,0.445065 -1.47826,0.548384 -1.20803,0.111266 -2.29287,0.516593 -2.29287,1.879603 0,1.208033 0.86231,1.819997 2.02663,1.819997 z m 0.4848,-1.168295 c -0.52056,0 -0.8941,-0.242401 -0.8941,-0.707335 0,-0.476855 0.39341,-0.711309 0.98947,-0.794758 0.36957,-0.05166 0.97358,-0.139083 1.17625,-0.274192 v 0.647728 c 0,0.639781 -0.52852,1.128557 -1.27162,1.128557 z"
         style="font-weight:bold;font-family:Inter;-inkscape-font-specification:'Inter Bold'"
         id="path1061" />
      <path
         d="m 166.85579,51.0236 c 1.2597,0 1.92729,-0.643754 2.27301,-1.629255 l 2.37236,-6.763395 h -1.79218 l -1.27559,4.482438 h -0.0636 l -1.26367,-4.482438 h -1.78026 l 2.18956,6.278592 -0.0993,0.258297 c -0.22253,0.572226 -0.64773,0.600043 -1.2438,0.417248 l -0.38148,1.263666 c 0.2424,0.103319 0.6358,0.174847 1.06497,0.174847 z"
         style="font-weight:bold;font-family:Inter;-inkscape-font-specification:'Inter Bold'"
         id="path1063" />
      <path
         d="m 172.36744,48.734695 h 1.69284 v -3.663836 c 0,-0.675545 0.42917,-1.124584 0.99345,-1.124584 0.55633,0 0.92986,0.381484 0.92986,0.981527 v 3.806893 h 1.64118 v -3.727417 c 0,-0.631833 0.36162,-1.061003 0.97755,-1.061003 0.54044,0 0.94577,0.337773 0.94577,1.017291 v 3.771129 h 1.68886 v -4.104927 c 0,-1.323273 -0.78681,-2.078294 -1.92332,-2.078294 -0.8941,0 -1.58951,0.456986 -1.83986,1.156374 h -0.0636 c -0.19472,-0.707335 -0.81861,-1.156374 -1.65708,-1.156374 -0.82257,0 -1.44646,0.437117 -1.70078,1.156374 h -0.0715 V 42.63095 h -1.61336 z"
         style="font-weight:bold;font-family:Inter;-inkscape-font-specification:'Inter Bold'"
         id="path1065" />
      <path
         d="m 185.3538,48.853909 c 1.51004,0 2.52733,-0.735151 2.76576,-1.867682 l -1.56567,-0.103319 c -0.17088,0.464934 -0.60799,0.707335 -1.17227,0.707335 -0.84642,0 -1.38288,-0.560305 -1.38288,-1.470303 v -0.004 h 4.15658 v -0.464934 c 0,-2.074319 -1.25571,-3.099558 -2.86907,-3.099558 -1.79616,0 -2.96048,1.275588 -2.96048,3.159165 0,1.935237 1.14843,3.14327 3.02803,3.14327 z m -1.35506,-3.787024 c 0.0358,-0.695414 0.56428,-1.251745 1.31532,-1.251745 0.73515,0 1.2438,0.524541 1.24777,1.251745 z"
         style="font-weight:bold;font-family:Inter;-inkscape-font-specification:'Inter Bold'"
         id="path1067" />
      <path
         d="m 190.95288,45.205968 c 0.004,-0.786811 0.47288,-1.247771 1.15637,-1.247771 0.67952,0 1.08882,0.445065 1.08484,1.192138 v 3.58436 h 1.69284 v -3.886369 c 0,-1.422617 -0.8345,-2.296852 -2.10611,-2.296852 -0.90602,0 -1.5617,0.445065 -1.83589,1.156374 h -0.0715 V 42.63095 h -1.61336 v 6.103745 h 1.69284 z"
         style="font-weight:bold;font-family:Inter;-inkscape-font-specification:'Inter Bold'"
         id="path1069" />
      <path
         d="m 199.46473,42.63095 h -1.14843 v -1.462356 h -1.69283 v 1.462356 h -0.8345 v 1.271614 h 0.8345 v 3.179034 c -0.008,1.196111 0.80668,1.788206 2.03458,1.736547 0.43712,-0.0159 0.74707,-0.103319 0.91794,-0.158952 l -0.26624,-1.259692 c -0.0834,0.0159 -0.26227,0.05563 -0.42122,0.05563 -0.33777,0 -0.57223,-0.127161 -0.57223,-0.596069 v -2.956501 h 1.14843 z"
         style="font-weight:bold;font-family:Inter;-inkscape-font-specification:'Inter Bold'"
         id="path1071" />
    </g>
    <g
       aria-label="-€"
       id="text238-2-7-9-9"
       style="font-size:11.1902px;line-height:1.25;fill:#f06c6c;stroke-width:0.265">
      <path
         d="m 170.46173,30.872318 h -3.71153 v 1.343142 h 3.71153 z"
         style="font-weight:bold;font-family:Inter;-inkscape-font-specification:'Inter Bold'"
         id="path1074" />
      <path
         d="m 177.26088,30.276249 h -2.80549 c 0.26624,-0.949736 0.86231,-1.378906 1.66899,-1.378906 0.70336,0 1.21598,0.341746 1.53388,0.564278 l 0.63581,-1.359037 c -0.58812,-0.476855 -1.3193,-0.739125 -2.16969,-0.739125 -1.71668,0 -3.01611,1.061003 -3.41746,2.91279 h -0.83052 l -0.32188,0.870261 h 1.03318 c -0.008,0.131135 -0.0119,0.266244 -0.0119,0.405326 0,0.131136 0.004,0.262271 0.0119,0.389432 h -0.7113 l -0.32188,0.89013 h 1.1524 c 0.40135,1.847813 1.70078,2.892921 3.41746,2.892921 0.8186,0 1.56965,-0.242402 2.14585,-0.719257 l -0.64376,-1.359037 c -0.29008,0.214585 -0.8027,0.54441 -1.50209,0.54441 -0.80668,0 -1.40275,-0.413275 -1.66899,-1.359037 h 1.61336 l 0.43314,-0.89013 h -2.18559 c -0.008,-0.123188 -0.0119,-0.254323 -0.0119,-0.389432 0,-0.143056 0.004,-0.278165 0.0119,-0.405326 h 2.55118 z"
         style="font-weight:bold;font-family:Inter;-inkscape-font-specification:'Inter Bold'"
         id="path1076" />
    </g>
    <rect
       style="fill:#e3e3e3;fill-opacity:1;stroke:#565d54;stroke-width:0;stroke-miterlimit:0;stroke-dasharray:none;stroke-opacity:0.242206"
       id="rect18804-1"
       width="1.8267639"
       height="48.779682"
       x="194.40608"
       y="68.433601"
       ry="0.13909534" />
    <rect
       style="fill:#e3e3e3;fill-opacity:1;stroke:#565d54;stroke-width:0;stroke-miterlimit:0;stroke-dasharray:none;stroke-opacity:0.242206"
       id="rect18804-6-81"
       width="1.8267639"
       height="48.779682"
       x="168.4155"
       y="68.433601"
       ry="0.13909534" />
    <rect
       style="fill:#e3e3e3;fill-opacity:1;stroke:#565d54;stroke-width:0;stroke-miterlimit:0;stroke-dasharray:none;stroke-opacity:0.242206"
       id="rect18804-6-9-8"
       width="1.8267639"
       height="48.779682"
       x="142.42491"
       y="68.433601"
       ry="0.13909534" />
    <rect
       style="fill:#e3e3e3;fill-opacity:1;stroke:#565d54;stroke-width:0;stroke-miterlimit:0;stroke-dasharray:none;stroke-opacity:0.242206"
       id="rect18804-6-4-79"
       width="1.8267639"
       height="96.221558"
       x="116.43438"
       y="20.991785"
       ry="0.27437595" />
    <rect
       style="fill:#e3e3e3;fill-opacity:1;stroke:#565d54;stroke-width:0;stroke-miterlimit:0;stroke-dasharray:none;stroke-opacity:0.242206"
       id="rect18804-6-9-2-2"
       width="1.8267639"
       height="96.22155"
       x="90.44381"
       y="20.991785"
       ry="0.27437592" />
    <rect
       style="fill:#e3e3e3;fill-opacity:1;stroke:#565d54;stroke-width:0;stroke-miterlimit:0;stroke-dasharray:none;stroke-opacity:0.242206"
       id="rect18804-6-5-4"
       width="1.8267639"
       height="19.052097"
       x="64.203033"
       y="98.160126"
       ry="0.054327082" />
    <rect
       style="fill:#e3e3e3;fill-opacity:1;stroke:#565d54;stroke-width:0;stroke-miterlimit:0;stroke-dasharray:none;stroke-opacity:0.242206"
       id="rect18804-6-9-0-0"
       width="1.8267639"
       height="19.052097"
       x="38.212437"
       y="98.160126"
       ry="0.054327082" />
    <rect
       style="fill:#e3e3e3;fill-opacity:1;stroke:#565d54;stroke-width:0;stroke-miterlimit:0;stroke-dasharray:none;stroke-opacity:0.242206"
       id="rect18804-6-4-7-47"
       width="1.8267639"
       height="19.052067"
       x="12.221882"
       y="98.160156"
       ry="0.054326996" />
  </g>
</svg>
