<?xml version="1.0" encoding="UTF-8" standalone="no"?>
<!-- Created with Inkscape (http://www.inkscape.org/) -->

<svg
   width="190mm"
   height="47.875mm"
   viewBox="0 0 190 47.875"
   version="1.1"
   id="svg1523"
   inkscape:version="1.2.2 (732a01da63, 2022-12-09)"
   sodipodi:docname="logo-black.svg"
   xml:space="preserve"
   xmlns:inkscape="http://www.inkscape.org/namespaces/inkscape"
   xmlns:sodipodi="http://sodipodi.sourceforge.net/DTD/sodipodi-0.dtd"
   xmlns="http://www.w3.org/2000/svg"
   xmlns:svg="http://www.w3.org/2000/svg"><sodipodi:namedview
     id="namedview1525"
     pagecolor="#000000"
     bordercolor="#eeeeee"
     borderopacity="1"
     inkscape:showpageshadow="false"
     inkscape:pageopacity="0"
     inkscape:pagecheckerboard="true"
     inkscape:deskcolor="#000000"
     inkscape:document-units="mm"
     showgrid="false"
     showguides="false"
     inkscape:lockguides="false"
     inkscape:zoom="0.47380113"
     inkscape:cx="508.65223"
     inkscape:cy="-12.663541"
     inkscape:window-width="1415"
     inkscape:window-height="975"
     inkscape:window-x="78"
     inkscape:window-y="-7"
     inkscape:window-maximized="1"
     inkscape:current-layer="layer1" /><defs
     id="defs1520"><inkscape:path-effect
       effect="spiro"
       id="path-effect19109"
       is_visible="true"
       lpeversion="1" /><rect
       x="851"
       y="648"
       width="316.28342"
       height="113.06451"
       id="rect21295" /><rect
       x="754"
       y="685"
       width="240"
       height="168"
       id="rect21289" /><rect
       x="854"
       y="545"
       width="242.5"
       height="209.5"
       id="rect17422" /><clipPath
       clipPathUnits="userSpaceOnUse"
       id="clipPath28389"><rect
         style="fill:#40b7c6;fill-opacity:1;stroke-width:6.66221"
         id="rect28391"
         width="232.99783"
         height="55.773533"
         x="39.10709"
         y="127.20324"
         ry="11.663928" /></clipPath><filter
       style="color-interpolation-filters:sRGB"
       inkscape:label="Lightness-Contrast"
       id="filter28609"
       x="0"
       y="0"
       width="1"
       height="1"><feColorMatrix
         values="1 0 0 -0.0351 -0 0 1 0 -0.0351 -0 0 0 1 -0.0351 -0 0 0 0 1 0"
         id="feColorMatrix28607"
         result="fbSourceGraphic" /><feColorMatrix
         result="fbSourceGraphicAlpha"
         in="fbSourceGraphic"
         values="0 0 0 -1 0 0 0 0 -1 0 0 0 0 -1 0 0 0 0 1 0"
         id="feColorMatrix28611" /><feColorMatrix
         id="feColorMatrix28613"
         values="1 0 0 -0.0351 -0 0 1 0 -0.0351 -0 0 0 1 -0.0351 -0 0 0 0 1 0"
         in="fbSourceGraphic"
         result="fbSourceGraphic" /><feColorMatrix
         result="fbSourceGraphicAlpha"
         in="fbSourceGraphic"
         values="0 0 0 -1 0 0 0 0 -1 0 0 0 0 -1 0 0 0 0 1 0"
         id="feColorMatrix28615" /><feColorMatrix
         id="feColorMatrix28617"
         values="1 0 0 -0.0351 -0 0 1 0 -0.0351 -0 0 0 1 -0.0351 -0 0 0 0 1 0"
         in="fbSourceGraphic"
         result="fbSourceGraphic" /><feColorMatrix
         result="fbSourceGraphicAlpha"
         in="fbSourceGraphic"
         values="0 0 0 -1 0 0 0 0 -1 0 0 0 0 -1 0 0 0 0 1 0"
         id="feColorMatrix32519" /><feColorMatrix
         id="feColorMatrix32521"
         values="0.913738 0 0 -0.0335861 0.043131 0 0.913738 0 -0.0335861 0.043131 0 0 0.913738 -0.0335861 0.043131 0 0 0 1 0"
         in="fbSourceGraphic" /></filter><clipPath
       clipPathUnits="userSpaceOnUse"
       id="clipPath28389-2"><rect
         style="fill:#40b7c6;fill-opacity:1;stroke-width:6.66221"
         id="rect28391-6"
         width="232.99783"
         height="55.773533"
         x="39.10709"
         y="127.20324"
         ry="11.663928" /></clipPath><filter
       style="color-interpolation-filters:sRGB"
       inkscape:label="Lightness-Contrast"
       id="filter28609-2"
       x="0"
       y="0"
       width="1"
       height="1"><feColorMatrix
         values="1 0 0 -0.0351 -0 0 1 0 -0.0351 -0 0 0 1 -0.0351 -0 0 0 0 1 0"
         id="feColorMatrix28607-8"
         result="fbSourceGraphic" /><feColorMatrix
         result="fbSourceGraphicAlpha"
         in="fbSourceGraphic"
         values="0 0 0 -1 0 0 0 0 -1 0 0 0 0 -1 0 0 0 0 1 0"
         id="feColorMatrix28611-4" /><feColorMatrix
         id="feColorMatrix28613-8"
         values="1 0 0 -0.0351 -0 0 1 0 -0.0351 -0 0 0 1 -0.0351 -0 0 0 0 1 0"
         in="fbSourceGraphic"
         result="fbSourceGraphic" /><feColorMatrix
         result="fbSourceGraphicAlpha"
         in="fbSourceGraphic"
         values="0 0 0 -1 0 0 0 0 -1 0 0 0 0 -1 0 0 0 0 1 0"
         id="feColorMatrix28615-1" /><feColorMatrix
         id="feColorMatrix28617-6"
         values="1 0 0 -0.0351 -0 0 1 0 -0.0351 -0 0 0 1 -0.0351 -0 0 0 0 1 0"
         in="fbSourceGraphic" /></filter><clipPath
       clipPathUnits="userSpaceOnUse"
       id="clipPath28389-8"><rect
         style="fill:#40b7c6;fill-opacity:1;stroke-width:6.66221"
         id="rect28391-9"
         width="232.99783"
         height="55.773533"
         x="39.10709"
         y="127.20324"
         ry="11.663928" /></clipPath><filter
       style="color-interpolation-filters:sRGB"
       inkscape:label="Lightness-Contrast"
       id="filter28609-6"
       x="0"
       y="0"
       width="1"
       height="1"><feColorMatrix
         values="1 0 0 -0.0351 -0 0 1 0 -0.0351 -0 0 0 1 -0.0351 -0 0 0 0 1 0"
         id="feColorMatrix28607-6"
         result="fbSourceGraphic" /><feColorMatrix
         result="fbSourceGraphicAlpha"
         in="fbSourceGraphic"
         values="0 0 0 -1 0 0 0 0 -1 0 0 0 0 -1 0 0 0 0 1 0"
         id="feColorMatrix28611-8" /><feColorMatrix
         id="feColorMatrix28613-3"
         values="1 0 0 -0.0351 -0 0 1 0 -0.0351 -0 0 0 1 -0.0351 -0 0 0 0 1 0"
         in="fbSourceGraphic"
         result="fbSourceGraphic" /><feColorMatrix
         result="fbSourceGraphicAlpha"
         in="fbSourceGraphic"
         values="0 0 0 -1 0 0 0 0 -1 0 0 0 0 -1 0 0 0 0 1 0"
         id="feColorMatrix28615-6" /><feColorMatrix
         id="feColorMatrix28617-1"
         values="1 0 0 -0.0351 -0 0 1 0 -0.0351 -0 0 0 1 -0.0351 -0 0 0 0 1 0"
         in="fbSourceGraphic" /></filter><clipPath
       clipPathUnits="userSpaceOnUse"
       id="clipPath28389-8-4"><rect
         style="fill:#40b7c6;fill-opacity:1;stroke-width:6.66221"
         id="rect28391-9-5"
         width="232.99783"
         height="55.773533"
         x="39.10709"
         y="127.20324"
         ry="11.663928" /></clipPath><filter
       style="color-interpolation-filters:sRGB"
       inkscape:label="Lightness-Contrast"
       id="filter28609-6-2"
       x="0"
       y="0"
       width="1"
       height="1"><feColorMatrix
         values="1 0 0 -0.0351 -0 0 1 0 -0.0351 -0 0 0 1 -0.0351 -0 0 0 0 1 0"
         id="feColorMatrix28607-6-4"
         result="fbSourceGraphic" /><feColorMatrix
         result="fbSourceGraphicAlpha"
         in="fbSourceGraphic"
         values="0 0 0 -1 0 0 0 0 -1 0 0 0 0 -1 0 0 0 0 1 0"
         id="feColorMatrix28611-8-4" /><feColorMatrix
         id="feColorMatrix28613-3-6"
         values="1 0 0 -0.0351 -0 0 1 0 -0.0351 -0 0 0 1 -0.0351 -0 0 0 0 1 0"
         in="fbSourceGraphic"
         result="fbSourceGraphic" /><feColorMatrix
         result="fbSourceGraphicAlpha"
         in="fbSourceGraphic"
         values="0 0 0 -1 0 0 0 0 -1 0 0 0 0 -1 0 0 0 0 1 0"
         id="feColorMatrix28615-6-4" /><feColorMatrix
         id="feColorMatrix28617-1-6"
         values="1 0 0 -0.0351 -0 0 1 0 -0.0351 -0 0 0 1 -0.0351 -0 0 0 0 1 0"
         in="fbSourceGraphic"
         result="fbSourceGraphic" /><feColorMatrix
         result="fbSourceGraphicAlpha"
         in="fbSourceGraphic"
         values="0 0 0 -1 0 0 0 0 -1 0 0 0 0 -1 0 0 0 0 1 0"
         id="feColorMatrix32515" /><feColorMatrix
         id="feColorMatrix32517"
         values="0.913738 0 0 -0.0335861 0.043131 0 0.913738 0 -0.0335861 0.043131 0 0 0.913738 -0.0335861 0.043131 0 0 0 1 0"
         in="fbSourceGraphic" /></filter><clipPath
       clipPathUnits="userSpaceOnUse"
       id="clipPath29187"><path
         id="path29189"
         style="fill:#efefef;stroke-width:6.66222"
         d="M 87.833964,127.203 H 223.37805 c 26.99468,0 48.72687,5.20215 48.72687,11.66402 v 32.44595 c 0,6.46187 -21.73219,11.66403 -48.72687,11.66403 H 87.833964 c -26.994681,0 -48.726867,-5.20216 -48.726867,-11.66403 v -32.44595 c 0,-6.46187 21.732186,-11.66402 48.726867,-11.66402 z" /></clipPath><clipPath
       clipPathUnits="userSpaceOnUse"
       id="clipPath28389-9"><rect
         style="fill:#40b7c6;fill-opacity:1;stroke-width:6.66221"
         id="rect28391-7"
         width="232.99783"
         height="55.773533"
         x="39.10709"
         y="127.20324"
         ry="11.663928" /></clipPath><filter
       style="color-interpolation-filters:sRGB"
       inkscape:label="Lightness-Contrast"
       id="filter28609-1"
       x="0"
       y="0"
       width="1"
       height="1"><feColorMatrix
         values="1 0 0 -0.0351 -0 0 1 0 -0.0351 -0 0 0 1 -0.0351 -0 0 0 0 1 0"
         id="feColorMatrix28607-1"
         result="fbSourceGraphic" /><feColorMatrix
         result="fbSourceGraphicAlpha"
         in="fbSourceGraphic"
         values="0 0 0 -1 0 0 0 0 -1 0 0 0 0 -1 0 0 0 0 1 0"
         id="feColorMatrix28611-3" /><feColorMatrix
         id="feColorMatrix28613-9"
         values="1 0 0 -0.0351 -0 0 1 0 -0.0351 -0 0 0 1 -0.0351 -0 0 0 0 1 0"
         in="fbSourceGraphic"
         result="fbSourceGraphic" /><feColorMatrix
         result="fbSourceGraphicAlpha"
         in="fbSourceGraphic"
         values="0 0 0 -1 0 0 0 0 -1 0 0 0 0 -1 0 0 0 0 1 0"
         id="feColorMatrix28615-8" /><feColorMatrix
         id="feColorMatrix28617-0"
         values="1 0 0 -0.0351 -0 0 1 0 -0.0351 -0 0 0 1 -0.0351 -0 0 0 0 1 0"
         in="fbSourceGraphic"
         result="fbSourceGraphic" /><feColorMatrix
         result="fbSourceGraphicAlpha"
         in="fbSourceGraphic"
         values="0 0 0 -1 0 0 0 0 -1 0 0 0 0 -1 0 0 0 0 1 0"
         id="feColorMatrix32519-5" /><feColorMatrix
         id="feColorMatrix32521-9"
         values="0.913738 0 0 -0.0335861 0.043131 0 0.913738 0 -0.0335861 0.043131 0 0 0.913738 -0.0335861 0.043131 0 0 0 1 0"
         in="fbSourceGraphic" /></filter></defs><g
     inkscape:label="Layer 1"
     inkscape:groupmode="layer"
     id="layer1"><text
       xml:space="preserve"
       transform="scale(0.26458333)"
       id="text17420"
       style="font-style:normal;font-weight:normal;font-size:40px;line-height:1.25;font-family:sans-serif;white-space:pre;shape-inside:url(#rect17422);display:inline;fill:#000000;fill-opacity:1;stroke:none" /><text
       xml:space="preserve"
       transform="scale(0.26458333)"
       id="text21287"
       style="font-style:normal;font-weight:normal;font-size:40px;line-height:1.25;font-family:sans-serif;white-space:pre;shape-inside:url(#rect21289);display:inline;fill:#000000;fill-opacity:1;stroke:none" /><text
       xml:space="preserve"
       transform="scale(0.26458333)"
       id="text21293"
       style="font-style:normal;font-weight:normal;font-size:40px;line-height:1.25;font-family:sans-serif;white-space:pre;shape-inside:url(#rect21295);display:inline;fill:#000000;fill-opacity:1;stroke:none" /><g
       id="g1324"
       style="fill:#ffffff;fill-opacity:1;stroke:#ffffff;stroke-opacity:1"><ellipse
         style="fill:#ffffff;fill-opacity:1;stroke:#ffffff;stroke-width:0;stroke-dasharray:none;stroke-opacity:1"
         id="path9174-9-4"
         cx="155.68307"
         cy="13.123055"
         rx="2.6106765"
         ry="2.5677276" /><path
         d="m 18.948715,36.693495 q -0.679272,0 -1.215537,-0.393465 -0.500514,-0.393465 -0.750767,-0.929525 l -6.220662,-14.87237 q -0.178751,-0.428745 -0.178751,-0.750767 0,-0.67928 0.464762,-1.144043 0.464761,-0.500488 1.144028,-0.500488 0.500517,0 0.893774,0.286159 0.428991,0.25039 0.572017,0.643512 l 5.469894,13.871359 5.469886,-13.871359 q 0.178749,-0.393466 0.572017,-0.643512 0.428993,-0.286159 0.893773,-0.286159 0.679272,0 1.144026,0.500488 0.464762,0.464514 0.464762,1.144043 0,0.321928 -0.178749,0.750767 l -6.220661,14.87237 q -0.250235,0.536257 -0.786518,0.929525 -0.500514,0.393465 -1.179778,0.393465 z"
         style="font-size:7.29616px;line-height:1.25;font-family:'Varela Round';-inkscape-font-specification:'Varela Round';letter-spacing:0.0264583px;fill:#ffffff;fill-opacity:1;stroke:#ffffff;stroke-width:0.489996;stroke-opacity:1"
         id="path25682" /><path
         style="font-size:7.29616px;line-height:1.25;font-family:'Varela Round';-inkscape-font-specification:'Varela Round';letter-spacing:0.0264583px;fill:#ffffff;fill-opacity:1;stroke:#ffffff;stroke-width:0.489996;stroke-opacity:1"
         d="m 33.164235,37.147725 q -0.679272,0 -1.144035,-0.465002 Q 31.555438,36.21772 31.555438,35.53868 V 20.201547 q 0,-0.714998 0.464762,-1.179761 0.464763,-0.465011 1.144035,-0.465011 0.715015,0 1.179777,0.465011 0.464763,0.465003 0.464763,1.179761 V 35.53868 q 0,0.67928 -0.464763,1.144043 -0.464762,0.465002 -1.179777,0.465002 z"
         id="path25721" /><path
         d="m 46.485989,37.326483 q -1.966295,0 -3.575084,-0.428753 -1.573045,-0.429234 -2.93158,-1.179812 -0.607761,-0.428744 -0.607761,-1.17976 0,-0.536257 0.393268,-0.965293 0.393276,-0.464522 1.001028,-0.464522 0.321739,0 0.643521,0.143083 0.965276,0.428745 2.109302,0.750776 1.179777,0.321927 2.752823,0.321927 2.073516,0 3.003041,-0.64352 0.965293,-0.679229 0.965293,-1.894767 0,-0.786536 -0.786501,-1.215529 -0.750767,-0.429234 -2.002056,-0.71505 -1.215529,-0.321927 -2.574065,-0.643512 -1.358535,-0.357704 -2.609816,-0.929524 -1.215529,-0.607743 -2.002047,-1.608754 -0.750776,-1.036788 -0.750776,-2.645594 0,-2.431067 1.751795,-4.039872 1.751795,-1.608754 5.219633,-1.608754 1.46579,0 2.752814,0.25039 1.322792,0.250382 2.431066,0.643512 0.500488,0.143075 0.750775,0.572017 0.286159,0.393465 0.286159,0.786493 0,0.572026 -0.429234,1.001062 -0.393474,0.428745 -1.001019,0.428745 -0.143075,0 -0.250381,0 -0.107315,-0.03433 -0.214622,-0.0715 -0.85803,-0.286159 -1.894818,-0.465003 -1.001011,-0.178853 -2.180771,-0.178853 -1.966304,0 -3.038827,0.715007 -1.072531,0.714998 -1.072531,1.787555 0,0.929525 0.750767,1.430004 0.786518,0.500531 2.002047,0.822313 1.251289,0.286159 2.60979,0.607743 1.394288,0.321928 2.609825,0.929525 1.251297,0.572017 2.002073,1.608805 0.786492,1.03678 0.786492,2.788566 0,2.18078 -1.751785,3.753859 -1.716017,1.537268 -5.148112,1.537268 z"
         style="font-size:7.29616px;line-height:1.25;font-family:'Varela Round';-inkscape-font-specification:'Varela Round';letter-spacing:0.0264583px;fill:#ffffff;fill-opacity:1;stroke:#ffffff;stroke-width:0.489996;stroke-opacity:1"
         id="path25686" /><path
         d="m 64.097817,37.326483 q -2.037799,0 -3.467855,-0.929524 -1.430005,-0.965294 -2.18078,-2.574048 -0.750767,-1.608805 -0.750767,-3.503623 v -10.15327 q 0,-0.679229 0.465003,-1.143991 0.500531,-0.465003 1.179769,-0.465003 0.679281,0 1.144043,0.465003 0.464514,0.465011 0.464514,1.143991 v 9.795771 q 0,2.03779 0.929524,3.21761 0.929525,1.143992 3.003093,1.143992 1.930535,0 3.360591,-1.036788 1.430005,-1.072497 2.502553,-2.395298 V 20.166018 q 0,-0.679229 0.465011,-1.143991 0.50048,-0.465003 1.179761,-0.465003 0.67928,0 1.144043,0.465003 0.464522,0.465011 0.464522,1.143991 v 15.337185 q 0,0.679237 -0.464522,1.179769 -0.464514,0.465002 -1.144043,0.465002 -0.679281,0 -1.179761,-0.465002 -0.465011,-0.500532 -0.465011,-1.179769 v -1.465825 q -1.108274,1.215538 -2.681311,2.252317 -1.573079,1.036788 -3.968377,1.036788 z"
         style="font-size:7.29616px;line-height:1.25;font-family:'Varela Round';-inkscape-font-specification:'Varela Round';letter-spacing:0.0264583px;fill:#ffffff;fill-opacity:1;stroke:#ffffff;stroke-width:0.489996;stroke-opacity:1"
         id="path25688" /><path
         d="m 84.426733,37.326483 q -1.537311,0 -2.895829,-0.643511 -1.322792,-0.643512 -2.145054,-1.823281 -0.786544,-1.215538 -0.786544,-2.895829 0,-2.53833 2.002073,-4.147136 2.037799,-1.644523 6.220652,-1.644523 h 4.325842 v -0.286158 q 0,-2.395298 -1.179769,-3.396361 -1.17976,-1.036736 -3.610827,-1.036736 -1.50155,0 -2.645593,0.286158 -1.108275,0.250391 -2.109285,0.572026 -0.286159,0.0715 -0.465012,0.0715 -0.536248,0 -0.929516,-0.393465 -0.393474,-0.393473 -0.393474,-0.965293 0,-0.965251 0.929525,-1.358519 1.251307,-0.536248 2.752849,-0.893798 1.537267,-0.392976 3.432086,-0.392976 2.609816,0 4.254339,1.036728 1.644531,1.036788 2.431066,2.645593 0.786502,1.608806 0.786502,3.360592 v 10.117492 q 0,0.67928 -0.500489,1.144043 -0.465002,0.465002 -1.144043,0.465002 -0.67928,0 -1.144043,-0.465002 -0.465002,-0.465003 -0.465002,-1.144043 v -0.929525 q -0.965251,1.001062 -2.574056,1.859049 -1.608797,0.858031 -4.147085,0.858031 z m 1.215486,-2.86006 q 1.6803,0 3.146125,-0.82227 1.465773,-0.822304 2.359529,-1.859041 V 28.78202 h -3.896848 q -2.502553,0 -3.968335,0.643512 -1.430056,0.643511 -1.430056,2.180831 0,1.143991 0.786544,2.002021 0.822262,0.858039 3.003041,0.858039 z"
         style="font-size:7.29616px;line-height:1.25;font-family:'Varela Round';-inkscape-font-specification:'Varela Round';letter-spacing:0.0264583px;fill:#ffffff;fill-opacity:1;stroke:#ffffff;stroke-width:0.489996;stroke-opacity:1"
         id="path25690" /><path
         d="m 101.60953,37.147725 q -0.67923,0 -1.14399,-0.465002 -0.465,-0.465003 -0.465,-1.144043 V 12.336321 q 0,-0.714998 0.465,-1.179761 0.46452,-0.464522 1.14399,-0.464522 0.71506,0 1.17982,0.464522 0.46452,0.465003 0.46452,1.179761 V 35.53868 q 0,0.67928 -0.46452,1.144043 -0.46501,0.465002 -1.17982,0.465002 z"
         style="font-size:7.29616px;line-height:1.25;font-family:'Varela Round';-inkscape-font-specification:'Varela Round';letter-spacing:0.0264583px;fill:#ffffff;fill-opacity:1;stroke:#ffffff;stroke-width:0.489996;stroke-opacity:1"
         id="path25692" /><path
         d="m 111.99972,37.147725 q -0.67924,0 -1.144,-0.465002 Q 110.3912,36.21772 110.3912,35.53868 V 21.524339 h -2.10933 q -0.57198,0 -1.00101,-0.393465 -0.39347,-0.428745 -0.39347,-1.001011 0,-0.607794 0.39347,-1.001019 0.42923,-0.393465 1.00101,-0.393465 h 2.10933 v -2.073568 q 0,-2.252317 0.7865,-3.610827 0.82226,-1.35857 2.07356,-1.930536 1.25131,-0.607794 2.50256,-0.607794 0.8938,0 1.6803,0.214621 0.78654,0.178844 1.43005,0.50048 0.32193,0.143075 0.57203,0.500531 0.25038,0.321927 0.25038,0.750775 0,0.500531 -0.39347,0.929516 -0.35769,0.428753 -0.92952,0.428753 -0.42875,0 -0.85803,-0.107314 -0.42875,-0.107307 -0.92953,-0.107307 -1.32274,0 -2.14505,0.643512 -0.78649,0.607743 -0.78649,2.502561 v 1.966305 h 4.46886 q 0.60775,0 1.00101,0.393465 0.39347,0.393465 0.39347,1.001011 0,0.572026 -0.39347,1.001019 -0.39346,0.393465 -1.00101,0.393465 h -4.46886 v 14.014341 q 0,0.67928 -0.46501,1.144043 -0.46452,0.465003 -1.17982,0.465003 z"
         style="font-size:7.29616px;line-height:1.25;font-family:'Varela Round';-inkscape-font-specification:'Varela Round';letter-spacing:0.0264583px;fill:#ffffff;fill-opacity:1;stroke:#ffffff;stroke-width:0.489996;stroke-opacity:1"
         id="path25694" /><path
         d="m 129.82612,37.326483 q -2.75285,0 -4.82641,-1.179768 -2.07352,-1.21553 -3.21756,-3.324866 -1.10828,-2.145011 -1.10828,-4.969354 0,-2.824335 1.10828,-4.93362 1.14404,-2.145062 3.21756,-3.324822 2.07356,-1.215538 4.82641,-1.215538 2.75281,0 4.79061,1.215538 2.07356,1.17976 3.2176,3.324822 1.144,2.109285 1.144,4.93362 0,2.824343 -1.144,4.969354 -1.14404,2.109336 -3.2176,3.324866 -2.0378,1.179768 -4.79061,1.179768 z m 0,-2.967323 q 1.35852,0 2.71704,-0.643512 1.35856,-0.643512 2.25232,-2.073568 0.92951,-1.465773 0.92951,-3.825354 0,-2.359529 -0.92951,-3.789585 -0.89376,-1.430047 -2.25232,-2.03779 -1.35852,-0.643512 -2.71704,-0.643512 -1.35856,0 -2.75285,0.643512 -1.35851,0.607743 -2.25231,2.03779 -0.89375,1.430056 -0.89375,3.789585 0,2.359581 0.89375,3.825354 0.8938,1.430056 2.25231,2.073568 1.39429,0.643512 2.75285,0.643512 z"
         style="font-size:7.29616px;line-height:1.25;font-family:'Varela Round';-inkscape-font-specification:'Varela Round';letter-spacing:0.0264583px;fill:#ffffff;fill-opacity:1;stroke:#ffffff;stroke-width:0.489996;stroke-opacity:1"
         id="path25696" /><path
         d="m 145.25715,37.147725 q -0.67929,0 -1.14405,-0.465002 -0.46501,-0.465003 -0.46501,-1.144043 V 12.336321 q 0,-0.714998 0.46501,-1.179761 0.46452,-0.464522 1.14405,-0.464522 0.71499,0 1.17976,0.464522 0.46451,0.465003 0.46451,1.179761 V 35.53868 q 0,0.67928 -0.46451,1.144043 -0.46501,0.465002 -1.17976,0.465002 z"
         style="font-size:7.29616px;line-height:1.25;font-family:'Varela Round';-inkscape-font-specification:'Varela Round';letter-spacing:0.0264583px;fill:#ffffff;fill-opacity:1;stroke:#ffffff;stroke-width:0.489996;stroke-opacity:1"
         id="path25698" /><path
         style="font-size:7.29616px;line-height:1.25;font-family:'Varela Round';-inkscape-font-specification:'Varela Round';letter-spacing:0.0264583px;fill:#ffffff;fill-opacity:1;stroke:#ffffff;stroke-width:0.489996;stroke-opacity:1"
         d="m 155.64728,37.147725 q -0.67928,0 -1.14404,-0.465002 -0.46453,-0.465003 -0.46453,-1.144043 V 20.201547 q 0,-0.714998 0.46453,-1.179761 0.465,-0.465011 1.14404,-0.465011 0.715,0 1.17976,0.465011 0.46501,0.465003 0.46501,1.179761 V 35.53868 q 0,0.67928 -0.46501,1.144043 -0.46451,0.465002 -1.17976,0.465002 z"
         id="path25725" /><path
         d="m 171.11406,37.326483 q -2.75279,0 -4.82636,-1.179768 -2.07357,-1.21553 -3.21756,-3.324866 -1.10828,-2.145011 -1.10828,-4.969354 0,-2.824335 1.10828,-4.93362 1.14399,-2.145062 3.21756,-3.324822 2.07357,-1.215538 4.82636,-1.215538 2.75285,0 4.79065,1.215538 2.07357,1.17976 3.21756,3.324822 1.14404,2.109285 1.14404,4.93362 0,2.824343 -1.14404,4.969354 -1.14399,2.109336 -3.21756,3.324866 -2.0378,1.179768 -4.79065,1.179768 z m 0,-2.967323 q 1.35856,0 2.71708,-0.643512 1.35856,-0.643512 2.25232,-2.073568 0.92952,-1.465773 0.92952,-3.825354 0,-2.359529 -0.92952,-3.789585 -0.89376,-1.430047 -2.25232,-2.03779 -1.35852,-0.643512 -2.71708,-0.643512 -1.35852,0 -2.75279,0.643512 -1.35852,0.607743 -2.25232,2.03779 -0.89376,1.430056 -0.89376,3.789585 0,2.359581 0.89376,3.825354 0.8938,1.430056 2.25232,2.073568 1.39427,0.643512 2.75279,0.643512 z"
         style="font-size:7.29616px;line-height:1.25;font-family:'Varela Round';-inkscape-font-specification:'Varela Round';letter-spacing:0.0264583px;fill:#ffffff;fill-opacity:1;stroke:#ffffff;stroke-width:0.489996;stroke-opacity:1"
         id="path25704" /><ellipse
         style="fill:#ffffff;fill-opacity:1;stroke:#ffffff;stroke-width:0;stroke-dasharray:none;stroke-opacity:1"
         id="path9174-9"
         cx="33.200008"
         cy="13.123159"
         rx="2.6106765"
         ry="2.5677276" /></g></g></svg>
