<?xml version="1.0" encoding="UTF-8" standalone="no"?>
<!-- Created with Inkscape (http://www.inkscape.org/) -->

<svg
   width="245.8mm"
   height="47.875mm"
   viewBox="0 0 245.8 47.875"
   version="1.1"
   id="svg1523"
   inkscape:version="1.4 (86a8ad7, 2024-10-11)"
   sodipodi:docname="logo-white.svg"
   xml:space="preserve"
   xmlns:inkscape="http://www.inkscape.org/namespaces/inkscape"
   xmlns:sodipodi="http://sodipodi.sourceforge.net/DTD/sodipodi-0.dtd"
   xmlns="http://www.w3.org/2000/svg"
   xmlns:svg="http://www.w3.org/2000/svg"><sodipodi:namedview
     id="namedview1525"
     pagecolor="#000000"
     bordercolor="#eeeeee"
     borderopacity="1"
     inkscape:showpageshadow="false"
     inkscape:pageopacity="0"
     inkscape:pagecheckerboard="true"
     inkscape:deskcolor="#000000"
     inkscape:document-units="mm"
     showgrid="false"
     showguides="false"
     inkscape:lockguides="false"
     inkscape:zoom="10.720896"
     inkscape:cx="102.23026"
     inkscape:cy="112.39732"
     inkscape:window-width="2560"
     inkscape:window-height="1494"
     inkscape:window-x="-11"
     inkscape:window-y="-11"
     inkscape:window-maximized="1"
     inkscape:current-layer="layer1" /><defs
     id="defs1520"><inkscape:path-effect
       effect="spiro"
       id="path-effect19109"
       is_visible="true"
       lpeversion="1" /><rect
       x="851"
       y="648"
       width="316.28342"
       height="113.06451"
       id="rect21295" /><rect
       x="754"
       y="685"
       width="240"
       height="168"
       id="rect21289" /><rect
       x="854"
       y="545"
       width="242.5"
       height="209.5"
       id="rect17422" /><clipPath
       clipPathUnits="userSpaceOnUse"
       id="clipPath28389"><rect
         style="fill:#40b7c6;fill-opacity:1;stroke-width:6.66221"
         id="rect28391"
         width="232.99783"
         height="55.773533"
         x="39.10709"
         y="127.20324"
         ry="11.663928" /></clipPath><filter
       style="color-interpolation-filters:sRGB"
       inkscape:label="Lightness-Contrast"
       id="filter28609"
       x="0"
       y="0"
       width="1"
       height="1"><feColorMatrix
         values="1 0 0 -0.0351 -0 0 1 0 -0.0351 -0 0 0 1 -0.0351 -0 0 0 0 1 0"
         id="feColorMatrix28607"
         result="fbSourceGraphic" /><feColorMatrix
         result="fbSourceGraphicAlpha"
         in="fbSourceGraphic"
         values="0 0 0 -1 0 0 0 0 -1 0 0 0 0 -1 0 0 0 0 1 0"
         id="feColorMatrix28611" /><feColorMatrix
         id="feColorMatrix28613"
         values="1 0 0 -0.0351 -0 0 1 0 -0.0351 -0 0 0 1 -0.0351 -0 0 0 0 1 0"
         in="fbSourceGraphic"
         result="fbSourceGraphic" /><feColorMatrix
         result="fbSourceGraphicAlpha"
         in="fbSourceGraphic"
         values="0 0 0 -1 0 0 0 0 -1 0 0 0 0 -1 0 0 0 0 1 0"
         id="feColorMatrix28615" /><feColorMatrix
         id="feColorMatrix28617"
         values="1 0 0 -0.0351 -0 0 1 0 -0.0351 -0 0 0 1 -0.0351 -0 0 0 0 1 0"
         in="fbSourceGraphic"
         result="fbSourceGraphic" /><feColorMatrix
         result="fbSourceGraphicAlpha"
         in="fbSourceGraphic"
         values="0 0 0 -1 0 0 0 0 -1 0 0 0 0 -1 0 0 0 0 1 0"
         id="feColorMatrix32519" /><feColorMatrix
         id="feColorMatrix32521"
         values="0.913738 0 0 -0.0335861 0.043131 0 0.913738 0 -0.0335861 0.043131 0 0 0.913738 -0.0335861 0.043131 0 0 0 1 0"
         in="fbSourceGraphic" /></filter><clipPath
       clipPathUnits="userSpaceOnUse"
       id="clipPath28389-2"><rect
         style="fill:#40b7c6;fill-opacity:1;stroke-width:6.66221"
         id="rect28391-6"
         width="232.99783"
         height="55.773533"
         x="39.10709"
         y="127.20324"
         ry="11.663928" /></clipPath><filter
       style="color-interpolation-filters:sRGB"
       inkscape:label="Lightness-Contrast"
       id="filter28609-2"
       x="0"
       y="0"
       width="1"
       height="1"><feColorMatrix
         values="1 0 0 -0.0351 -0 0 1 0 -0.0351 -0 0 0 1 -0.0351 -0 0 0 0 1 0"
         id="feColorMatrix28607-8"
         result="fbSourceGraphic" /><feColorMatrix
         result="fbSourceGraphicAlpha"
         in="fbSourceGraphic"
         values="0 0 0 -1 0 0 0 0 -1 0 0 0 0 -1 0 0 0 0 1 0"
         id="feColorMatrix28611-4" /><feColorMatrix
         id="feColorMatrix28613-8"
         values="1 0 0 -0.0351 -0 0 1 0 -0.0351 -0 0 0 1 -0.0351 -0 0 0 0 1 0"
         in="fbSourceGraphic"
         result="fbSourceGraphic" /><feColorMatrix
         result="fbSourceGraphicAlpha"
         in="fbSourceGraphic"
         values="0 0 0 -1 0 0 0 0 -1 0 0 0 0 -1 0 0 0 0 1 0"
         id="feColorMatrix28615-1" /><feColorMatrix
         id="feColorMatrix28617-6"
         values="1 0 0 -0.0351 -0 0 1 0 -0.0351 -0 0 0 1 -0.0351 -0 0 0 0 1 0"
         in="fbSourceGraphic" /></filter><clipPath
       clipPathUnits="userSpaceOnUse"
       id="clipPath28389-8"><rect
         style="fill:#40b7c6;fill-opacity:1;stroke-width:6.66221"
         id="rect28391-9"
         width="232.99783"
         height="55.773533"
         x="39.10709"
         y="127.20324"
         ry="11.663928" /></clipPath><filter
       style="color-interpolation-filters:sRGB"
       inkscape:label="Lightness-Contrast"
       id="filter28609-6"
       x="0"
       y="0"
       width="1"
       height="1"><feColorMatrix
         values="1 0 0 -0.0351 -0 0 1 0 -0.0351 -0 0 0 1 -0.0351 -0 0 0 0 1 0"
         id="feColorMatrix28607-6"
         result="fbSourceGraphic" /><feColorMatrix
         result="fbSourceGraphicAlpha"
         in="fbSourceGraphic"
         values="0 0 0 -1 0 0 0 0 -1 0 0 0 0 -1 0 0 0 0 1 0"
         id="feColorMatrix28611-8" /><feColorMatrix
         id="feColorMatrix28613-3"
         values="1 0 0 -0.0351 -0 0 1 0 -0.0351 -0 0 0 1 -0.0351 -0 0 0 0 1 0"
         in="fbSourceGraphic"
         result="fbSourceGraphic" /><feColorMatrix
         result="fbSourceGraphicAlpha"
         in="fbSourceGraphic"
         values="0 0 0 -1 0 0 0 0 -1 0 0 0 0 -1 0 0 0 0 1 0"
         id="feColorMatrix28615-6" /><feColorMatrix
         id="feColorMatrix28617-1"
         values="1 0 0 -0.0351 -0 0 1 0 -0.0351 -0 0 0 1 -0.0351 -0 0 0 0 1 0"
         in="fbSourceGraphic" /></filter><clipPath
       clipPathUnits="userSpaceOnUse"
       id="clipPath28389-8-4"><rect
         style="fill:#40b7c6;fill-opacity:1;stroke-width:6.66221"
         id="rect28391-9-5"
         width="232.99783"
         height="55.773533"
         x="39.10709"
         y="127.20324"
         ry="11.663928" /></clipPath><filter
       style="color-interpolation-filters:sRGB"
       inkscape:label="Lightness-Contrast"
       id="filter28609-6-2"
       x="0"
       y="0"
       width="1"
       height="1"><feColorMatrix
         values="1 0 0 -0.0351 -0 0 1 0 -0.0351 -0 0 0 1 -0.0351 -0 0 0 0 1 0"
         id="feColorMatrix28607-6-4"
         result="fbSourceGraphic" /><feColorMatrix
         result="fbSourceGraphicAlpha"
         in="fbSourceGraphic"
         values="0 0 0 -1 0 0 0 0 -1 0 0 0 0 -1 0 0 0 0 1 0"
         id="feColorMatrix28611-8-4" /><feColorMatrix
         id="feColorMatrix28613-3-6"
         values="1 0 0 -0.0351 -0 0 1 0 -0.0351 -0 0 0 1 -0.0351 -0 0 0 0 1 0"
         in="fbSourceGraphic"
         result="fbSourceGraphic" /><feColorMatrix
         result="fbSourceGraphicAlpha"
         in="fbSourceGraphic"
         values="0 0 0 -1 0 0 0 0 -1 0 0 0 0 -1 0 0 0 0 1 0"
         id="feColorMatrix28615-6-4" /><feColorMatrix
         id="feColorMatrix28617-1-6"
         values="1 0 0 -0.0351 -0 0 1 0 -0.0351 -0 0 0 1 -0.0351 -0 0 0 0 1 0"
         in="fbSourceGraphic"
         result="fbSourceGraphic" /><feColorMatrix
         result="fbSourceGraphicAlpha"
         in="fbSourceGraphic"
         values="0 0 0 -1 0 0 0 0 -1 0 0 0 0 -1 0 0 0 0 1 0"
         id="feColorMatrix32515" /><feColorMatrix
         id="feColorMatrix32517"
         values="0.913738 0 0 -0.0335861 0.043131 0 0.913738 0 -0.0335861 0.043131 0 0 0.913738 -0.0335861 0.043131 0 0 0 1 0"
         in="fbSourceGraphic" /></filter><clipPath
       clipPathUnits="userSpaceOnUse"
       id="clipPath29187"><path
         id="path29189"
         style="fill:#efefef;stroke-width:6.66222"
         d="M 87.833964,127.203 H 223.37805 c 26.99468,0 48.72687,5.20215 48.72687,11.66402 v 32.44595 c 0,6.46187 -21.73219,11.66403 -48.72687,11.66403 H 87.833964 c -26.994681,0 -48.726867,-5.20216 -48.726867,-11.66403 v -32.44595 c 0,-6.46187 21.732186,-11.66402 48.726867,-11.66402 z" /></clipPath><clipPath
       clipPathUnits="userSpaceOnUse"
       id="clipPath28389-9"><rect
         style="fill:#40b7c6;fill-opacity:1;stroke-width:6.66221"
         id="rect28391-7"
         width="232.99783"
         height="55.773533"
         x="39.10709"
         y="127.20324"
         ry="11.663928" /></clipPath><filter
       style="color-interpolation-filters:sRGB"
       inkscape:label="Lightness-Contrast"
       id="filter28609-1"
       x="0"
       y="0"
       width="1"
       height="1"><feColorMatrix
         values="1 0 0 -0.0351 -0 0 1 0 -0.0351 -0 0 0 1 -0.0351 -0 0 0 0 1 0"
         id="feColorMatrix28607-1"
         result="fbSourceGraphic" /><feColorMatrix
         result="fbSourceGraphicAlpha"
         in="fbSourceGraphic"
         values="0 0 0 -1 0 0 0 0 -1 0 0 0 0 -1 0 0 0 0 1 0"
         id="feColorMatrix28611-3" /><feColorMatrix
         id="feColorMatrix28613-9"
         values="1 0 0 -0.0351 -0 0 1 0 -0.0351 -0 0 0 1 -0.0351 -0 0 0 0 1 0"
         in="fbSourceGraphic"
         result="fbSourceGraphic" /><feColorMatrix
         result="fbSourceGraphicAlpha"
         in="fbSourceGraphic"
         values="0 0 0 -1 0 0 0 0 -1 0 0 0 0 -1 0 0 0 0 1 0"
         id="feColorMatrix28615-8" /><feColorMatrix
         id="feColorMatrix28617-0"
         values="1 0 0 -0.0351 -0 0 1 0 -0.0351 -0 0 0 1 -0.0351 -0 0 0 0 1 0"
         in="fbSourceGraphic"
         result="fbSourceGraphic" /><feColorMatrix
         result="fbSourceGraphicAlpha"
         in="fbSourceGraphic"
         values="0 0 0 -1 0 0 0 0 -1 0 0 0 0 -1 0 0 0 0 1 0"
         id="feColorMatrix32519-5" /><feColorMatrix
         id="feColorMatrix32521-9"
         values="0.913738 0 0 -0.0335861 0.043131 0 0.913738 0 -0.0335861 0.043131 0 0 0.913738 -0.0335861 0.043131 0 0 0 1 0"
         in="fbSourceGraphic" /></filter></defs><g
     inkscape:label="Layer 1"
     inkscape:groupmode="layer"
     id="layer1"><path
       style="display:inline;fill:#000000;fill-opacity:1;stroke-width:3.05564;stroke-linecap:round;stroke-linejoin:round;stroke-miterlimit:2.3"
       d="m 91.422249,18.970362 c -0.549007,0 -1.068909,0.201235 -1.451789,0.568429 -0.384516,0.37081 -0.585335,0.877363 -0.585335,1.419531 v 14.473407 c 0,0.526355 0.202455,1.018405 0.585335,1.385734 0.38288,0.367421 0.902782,0.562253 1.451789,0.562284 0.56729,0 1.093969,-0.190862 1.480983,-0.562284 0.382908,-0.367213 0.586852,-0.859291 0.586852,-1.385734 v -14.4734 c 0,-0.543835 -0.199782,-1.048248 -0.586852,-1.419534 -0.387014,-0.371346 -0.913693,-0.56843 -1.480983,-0.568429 z"
       id="path29" /><path
       style="display:inline;fill:#000000;fill-opacity:1;stroke-width:3.05564;stroke-linecap:round;stroke-linejoin:round;stroke-miterlimit:2.3"
       d="m 211.50345,18.933492 c -0.549,0 -1.0689,0.201237 -1.45178,0.568427 -0.38452,0.37081 -0.58688,0.877366 -0.58688,1.419534 v 14.473406 c 0,0.526323 0.20394,1.018401 0.58688,1.385734 0.38288,0.367421 0.90278,0.562254 1.45178,0.562284 0.5673,0 1.09397,-0.191158 1.48097,-0.562284 0.38293,-0.367213 0.58686,-0.85929 0.58686,-1.385734 V 20.921458 c 0,-0.543863 -0.20005,-1.048246 -0.58686,-1.419534 -0.387,-0.371373 -0.91367,-0.568426 -1.48097,-0.568427 z"
       id="path28" /><path
       style="display:inline;fill:#000000;fill-opacity:1;stroke-width:3.05564;stroke-linecap:round;stroke-linejoin:round;stroke-miterlimit:2.3"
       d="m 70.826733,18.257525 c -1.373243,0.004 -2.754573,1.23492 -2.060193,2.898982 l 6.119072,14.643929 0.006,0.0122 c 0.195023,0.418079 0.491393,0.776635 0.869516,1.073868 l 0.006,0.0063 0.006,0.0048 c 0.425333,0.312095 0.929479,0.477786 1.46255,0.477786 h 0.354905 c 0.533041,0 1.032876,-0.167105 1.43951,-0.487004 0.397269,-0.294317 0.710079,-0.654528 0.90641,-1.075402 v -0.01224 L 86.061561,21.156752 C 87.198994,18.42489 82.902492,17.064729 81.991922,19.751045 L 77.415287,31.382302 72.838648,19.751041 c -0.367155,-1.053775 -1.187291,-1.494537 -2.010992,-1.493275 z"
       id="path27" /><path
       style="display:inline;fill:#000000;fill-opacity:1;stroke-width:3.05564;stroke-linecap:round;stroke-linejoin:round;stroke-miterlimit:2.3"
       d="m 130.41786,18.182245 c -0.54901,0 -1.06553,0.206023 -1.46871,0.580719 l -0.006,0.0063 -0.006,0.0063 c -0.38265,0.382791 -0.58686,0.89803 -0.58686,1.447185 v 6.908703 c 8.4e-4,2.324187 -0.72153,3.955069 -2.01563,5.212638 -1.14308,1.110827 -2.71608,1.328371 -3.31993,1.355008 -1.30907,0.05767 -2.12421,-0.320056 -2.65318,-0.969398 -0.52894,-0.649284 -0.77872,-1.637661 -0.74355,-2.857505 v -0.0063 -9.644836 c 0,-0.548708 -0.21048,-1.062563 -0.59301,-1.445652 -0.38255,-0.382733 -0.89573,-0.591085 -1.44412,-0.591471 h -0.002 c -0.54838,3.86e-4 -1.0643,0.206319 -1.46716,0.580717 l -0.003,0.0063 -0.006,0.0063 c -0.38309,0.382911 -0.59146,0.896703 -0.59146,1.445648 v 9.987431 c 0,1.302848 0.26221,2.523856 0.78351,3.641012 0.52445,1.123788 1.29399,2.038162 2.2983,2.716163 h 0.006 l 0.006,0.0063 c 1.02057,0.663373 2.25218,0.987833 3.65789,0.987833 2.71516,0.156376 5.17541,-1.567502 6.0914,-3.041857 v 0.794262 c 0,0.548978 0.20008,1.065511 0.57458,1.468695 l 0.0119,0.01221 0.0119,0.0122 c 0.40319,0.374674 0.91971,0.580718 1.46871,0.580718 0.5491,0 1.06285,-0.209887 1.44565,-0.593009 l 0.006,-0.0063 0.006,-0.0063 c 0.37405,-0.403157 0.58073,-0.921256 0.58073,-1.470233 V 20.220845 c 0,-0.54871 -0.21049,-1.062562 -0.59301,-1.445654 -0.38288,-0.383117 -0.89669,-0.591469 -1.44564,-0.591469 z"
       id="path26" /><path
       style="display:inline;fill:#000000;fill-opacity:1;stroke-width:3.05564;stroke-linecap:round;stroke-linejoin:round;stroke-miterlimit:2.3"
       d="m 226.71737,18.010175 c -1.86987,2.29e-4 -3.53411,0.414087 -4.96839,1.25361 -1.43172,0.814578 -2.55678,1.971967 -3.34452,3.448974 v 0.0063 c -0.76574,1.457436 -1.14453,3.151592 -1.14453,5.063617 0,1.912054 0.3803,3.618247 1.14453,5.097416 v 0.0063 0.0063 c 0.78777,1.452503 1.91081,2.606018 3.33834,3.442829 l 0.006,0.0047 c 1.43515,0.816539 3.0993,1.219816 4.96989,1.219816 1.87061,0 3.52738,-0.407698 4.94073,-1.225961 h 0.006 c 1.42758,-0.836815 2.546,-1.990328 3.33376,-3.442829 v -0.0048 c 0.78935,-1.480003 1.17835,-3.189605 1.17835,-5.103561 0,-1.913957 -0.38746,-3.610017 -1.17835,-5.068226 -0.78634,-1.474494 -1.90553,-2.629967 -3.33376,-3.444367 -1.41351,-0.843123 -3.07338,-1.259524 -4.9453,-1.259756 z m 0,3.826908 h 0.002 c 0.81969,0 1.64118,0.188215 2.47958,0.585326 h 0.006 l 0.006,0.0063 c 0.80414,0.359721 1.46715,0.954645 2.0141,1.829721 l 0.006,0.0063 c 0.54771,0.842641 0.84192,1.994388 0.84192,3.482774 0,1.488383 -0.29733,2.657075 -0.84805,3.525787 -0.54783,0.876532 -1.21776,1.486637 -2.02636,1.869665 -0.83845,0.397152 -1.65994,0.591475 -2.47958,0.591475 -0.81784,0 -1.65152,-0.194428 -2.51335,-0.591475 h -0.006 c -0.80449,-0.382017 -1.46954,-0.994056 -2.01563,-1.865058 -0.53003,-0.869276 -0.81268,-2.039689 -0.81268,-3.530394 0,-1.490676 0.28094,-2.645773 0.80809,-3.48892 0.54694,-0.875072 1.21615,-1.469999 2.02022,-1.829722 v -0.0063 c 0.86328,-0.398428 1.69884,-0.585093 2.518,-0.585325 z"
       id="path25" /><path
       style="display:inline;fill:#000000;fill-opacity:1;stroke-width:3.05564;stroke-linecap:round;stroke-linejoin:round;stroke-miterlimit:2.3"
       d="m 187.96131,18.010175 c -1.87049,0 -3.54138,0.413855 -4.97605,1.25361 -1.43168,0.814578 -2.55216,1.971967 -3.33991,3.448974 l -0.006,0.0063 c -0.76576,1.457436 -1.13684,3.151592 -1.13684,5.063617 0,1.912054 0.37257,3.618247 1.13684,5.097416 v 0.0063 l 0.006,0.0063 c 0.78778,1.452503 1.90626,2.605988 3.33377,3.442829 h 0.006 v 0.0047 c 1.43517,0.816507 3.10546,1.219816 4.97606,1.219816 1.87059,0 3.52582,-0.407729 4.93918,-1.225961 1.42755,-0.836843 2.54749,-1.990328 3.33529,-3.442829 v -0.0048 h 0.006 c 0.78931,-1.480003 1.17985,-3.189605 1.17985,-5.103561 0,-1.913957 -0.3936,-3.610017 -1.1845,-5.068226 h 0.006 c -0.7864,-1.474494 -1.91168,-2.629967 -3.3399,-3.444367 -1.41386,-0.843355 -3.06811,-1.259756 -4.9407,-1.259756 z m -0.002,3.826908 h 0.002 c 0.81967,0 1.63962,0.188215 2.47804,0.585326 l 0.006,0.0063 c 0.8041,0.359721 1.47487,0.954645 2.02176,1.829721 v 0.0063 c 0.54768,0.842641 0.84188,1.994388 0.84188,3.482774 0,1.488415 -0.29104,2.657105 -0.84188,3.525787 -0.54782,0.876532 -1.21779,1.486637 -2.02637,1.869665 -0.83843,0.397152 -1.65992,0.591475 -2.47958,0.591475 -0.81966,0 -1.65721,-0.192643 -2.52105,-0.591475 -0.80861,-0.383028 -1.47234,-0.993133 -2.0202,-1.869665 -0.52844,-0.868861 -0.81273,-2.037404 -0.81273,-3.525787 0,-1.490676 0.28569,-2.645773 0.81273,-3.48892 0.54694,-0.875072 1.2115,-1.469999 2.01559,-1.829722 l 0.006,-0.0063 c 0.86329,-0.398428 1.69881,-0.585093 2.51797,-0.585325 z"
       id="path24" /><path
       style="display:inline;fill:#000000;fill-opacity:1;stroke-width:3.05564;stroke-linecap:round;stroke-linejoin:round;stroke-miterlimit:2.3"
       d="m 144.91745,18.010175 c -1.27434,0 -2.43874,0.132027 -3.49047,0.40097 -1.0001,0.238725 -1.92577,0.539505 -2.76842,0.900269 -0.73229,0.309805 -1.19063,0.974243 -1.19063,1.752907 0,0.194427 0.14449,3.368131 4.28012,1.24747 0,0 1.65077,-0.370246 2.6071,-0.370246 1.53038,0 2.59896,0.326644 3.25696,0.904876 l 0.006,0.0063 c 0.60092,0.509884 0.89922,1.470863 0.9387,2.822168 h -3.744 c -2.80332,0 -4.95012,0.545138 -6.40483,1.71911 -1.40409,1.128245 -2.137,2.650964 -2.137,4.435272 0,1.172991 0.28034,2.218294 0.84805,3.095627 v 0.0063 l 0.006,0.0063 c 0.58249,0.835683 1.34891,1.492814 2.2814,1.946478 h 0.006 c 0.95095,0.450456 1.97015,0.679043 3.04186,0.679043 2.92785,0 4.29552,-0.899464 4.29703,-0.900268 0.76684,-0.40901 1.34986,-1.039502 1.86355,-1.666874 v 0.353347 c 0,0.548829 0.21018,1.062651 0.59301,1.445649 0.38279,0.382702 0.89648,0.593009 1.44567,0.593009 0.54621,0 1.05708,-0.207212 1.43949,-0.586863 0.40548,-0.379231 0.63306,-0.897563 0.63306,-1.451711 v -9.958354 c 0,-1.216957 -0.27886,-2.392158 -0.82347,-3.505817 -0.55386,-1.132824 -1.41416,-2.069222 -2.55484,-2.788368 -1.17029,-0.737726 -2.65863,-1.084622 -4.4307,-1.084622 z m 1.88504,11.075131 c 0.73518,0.006 1.1947,-0.03824 1.481,0.16898 0.47777,0.345659 0.35627,1.207834 0.35642,1.233641 -0.0238,1.219812 -0.86117,1.995687 -2.63015,2.86211 -1.33424,0.653474 -3.55388,1.110766 -5.06978,0 -0.50578,-0.370603 -0.67613,-0.996016 -0.67904,-1.642295 0.0297,-0.549989 0.20364,-0.931121 0.49314,-1.242859 0.29254,-0.314743 0.71737,-0.561713 1.21983,-0.743565 1.00493,-0.363676 1.74124,-0.511676 2.75304,-0.620664 0.22891,-0.02378 0.99747,0.006 1.19523,0 0.34605,-0.0119 0.63526,-0.01844 0.88031,-0.01545 z"
       id="path23" /><path
       style="display:inline;fill:#000000;fill-opacity:1;stroke-width:3.05564;stroke-linecap:round;stroke-linejoin:round;stroke-miterlimit:2.3"
       d="m 104.73722,18.010175 c -2.34496,0 -4.18877,0.544571 -5.44764,1.700673 -1.232894,1.132262 -1.869648,2.605705 -1.869648,4.309296 0,1.12587 0.267257,2.09795 0.824974,2.868257 l 0.006,0.0063 0.006,0.0122 c 0.252987,0.322203 0.540147,0.614349 0.855714,0.87876 h 0.006 c 0.31596,0.234858 0.660637,0.440371 1.03545,0.61298 0.82914,0.414424 1.71842,0.732366 2.6639,0.950964 0.89223,0.211075 1.75112,0.411264 2.5733,0.599152 h -0.0178 c 0.75963,0.200971 1.37143,0.449228 1.83431,0.74203 0.38484,0.256561 0.54077,0.546101 0.54077,1.033923 0,0.552575 -0.23754,0.971629 -0.85418,1.382664 -0.62288,0.415197 -1.51226,0.725093 -2.69924,0.626807 -1.86555,-0.154591 -1.9586,-0.2634 -2.66546,-0.649852 -0.27024,-0.147754 -0.87094,-0.531829 -1.52094,-0.772757 -0.324986,-0.1204 -0.663573,-0.209915 -1.02159,-0.202779 -0.35803,0.006 -0.752507,0.142966 -1.027794,0.448595 -0.33704,0.37432 -0.545997,0.817802 -0.574567,1.28895 -0.0297,0.471146 0.131397,0.947891 0.447057,1.370373 0.631147,0.844959 1.841468,1.518158 3.714744,1.977207 l 0.0119,0.0063 h 0.0119 c 0.82558,0.160536 1.7686,0.351586 2.7653,0.359492 h 0.17361 c 2.29258,-0.01784 4.09796,-0.562764 5.33705,-1.700675 1.23299,-1.132287 1.86966,-2.610315 1.86966,-4.313906 0,-1.12587 -0.26727,-2.097947 -0.82498,-2.868256 l -0.006,-0.0063 -0.006,-0.0063 c -0.25386,-0.323269 -0.54197,-0.61555 -0.85876,-0.880289 v -0.0016 h -0.002 c -0.31487,-0.235735 -0.65919,-0.44222 -1.03392,-0.614499 -0.83072,-0.415226 -1.71797,-0.733873 -2.66547,-0.952502 -0.88601,-0.209886 -1.73789,-0.404743 -2.55484,-0.591471 l -0.0178,-0.0063 c -0.7495,-0.200002 -1.3585,-0.453394 -1.81704,-0.743492 -0.38481,-0.25656 -0.54077,-0.539926 -0.54077,-1.027782 0,-0.552573 0.23753,-0.971627 0.85417,-1.382661 0.62286,-0.415194 1.13368,-0.815733 3.13248,-0.717447 1.60971,0.209589 1.61304,0.843074 3.61028,1.350401 1.21621,0.308944 2.77222,-0.911534 2.18306,-2.600942 -0.63115,-0.844929 -1.70481,-1.665643 -3.57799,-2.12469 h -0.0119 -0.0119 c -0.84304,-0.164111 -1.80668,-0.359501 -2.82679,-0.359501 z"
       id="path22" /><path
       d="m 20.447835,25.381689 c -0.739942,2e-6 -1.416158,0.302432 -1.906608,0.791137 -0.490473,0.488703 -0.793886,1.163667 -0.793886,1.909357 0,1.491446 1.220608,2.703245 2.700494,2.703242 1.47986,3e-6 2.695535,-1.211724 2.695455,-2.703242 0,-1.491378 -1.215779,-2.700329 -2.695455,-2.700494 z"
       style="display:inline;stroke-width:2.70875;stroke-linecap:round;stroke-linejoin:round;stroke-miterlimit:2.3"
       id="path32" /><path
       d="m 46.26591,15.939079 -0.0015,0.0015 c -0.560304,-0.0208 -1.128972,0.161802 -1.585433,0.551904 l -0.01189,0.01344 c -0.04073,0.03361 -0.08124,0.06806 -0.119889,0.104387 -0.0089,0.01249 -0.01795,0.0265 -0.02687,0.03876 l -0.01499,0.01189 -0.0088,0.0078 c 0.002,-0.0027 0.0031,-0.0071 0.0062,-0.01033 l -8.147306,8.105448 -0.96945,-0.966349 c -0.01486,-0.006 -0.03082,-0.01053 -0.04599,-0.01085 C 31.87534,20.45672 27.219347,18.523609 22.301481,18.521867 h -0.0015 c -1.38656,0.0027 -2.752752,0.16325 -4.077271,0.460954 -0.01189,0.0027 -0.02366,0.0023 -0.03824,0.0078 -1.795127,0.361131 -3.442524,1.240803 -4.735112,2.531629 l -0.0015,0.0016 0.0062,-0.0016 c -1.733499,1.730026 -2.706066,4.07253 -2.706811,6.515364 9.52e-4,4.393516 3.112802,8.178771 7.441406,9.04906 0.01486,0.0027 0.02418,8.88e-4 0.03876,0.0078 1.323864,0.297647 2.689872,0.458597 4.07572,0.462504 l 0.01189,-0.0021 c 4.940134,-0.01398 9.617215,-1.966991 13.078271,-5.331975 0.0019,7.6e-4 9.15e-4,0.0024 0.0062,0.0026 l 0.236678,-0.24598 c 0.03836,-0.03857 0.08402,-0.07559 0.127124,-0.118339 l -0.0016,-0.0047 0.600997,-0.595829 5.624463,5.622913 a 2.3113093,2.3113093 0 0 0 3.267501,0 2.3113093,2.3113093 0 0 0 0.131775,-0.152446 l 1.382861,-1.376143 0.0062,0.0062 3.379639,-3.380155 a 2.3113093,2.3113093 0 0 0 0.153479,-3.090768 c -5.95e-4,-7.67e-4 -0.0021,-7.25e-4 -0.0026,-0.0015 a 2.3113093,2.3113093 0 0 0 -0.149345,-0.175183 2.3113093,2.3113093 0 0 0 -3.269051,0 l -3.268017,3.26595 -0.726571,-0.72502 -3.248897,-3.250964 c 0.006,-0.0096 0.01485,-0.01727 0.02377,-0.02739 l 8.123535,-8.085811 0.01499,-0.01395 v -0.0015 c 0.90192,-0.90154 0.90192,-2.362857 0,-3.2644 -0.425488,-0.423661 -0.977646,-0.648228 -1.53789,-0.670244 z m -23.952543,6.875032 h 5.16e-4 l 0.001,0.0016 c 2.246177,8.42e-4 4.359157,0.592298 6.259049,1.616438 1.65906,0.894302 3.155859,2.11698 4.427637,3.573426 -1.26598,1.46396 -2.759566,2.695924 -4.415234,3.600814 -1.899805,1.038137 -4.016168,1.645077 -6.268351,1.653129 -1.060199,-0.0027 -2.090275,-0.13744 -3.083016,-0.387057 -0.01189,-0.0026 -0.02121,-0.0052 -0.03101,-0.0078 -0.410084,-0.07067 -0.809821,-0.193457 -1.189075,-0.364319 -1.768579,-0.788679 -2.908174,-2.536126 -2.914034,-4.464327 0.0028,-1.238303 0.477257,-2.423223 1.315165,-3.321761 0.119514,-0.1284 0.246628,-0.249323 0.380856,-0.365353 h 0.0016 c 0.353241,-0.30506 0.748566,-0.557024 1.173572,-0.751375 0.393434,-0.181882 0.808138,-0.310336 1.235583,-0.383956 0.03835,-0.0084 0.07414,-0.02385 0.111621,-0.03204 0.964901,-0.235595 1.965839,-0.364032 2.994133,-0.36742 z"
       style="display:inline;stroke-width:3.05564;stroke-linecap:round;stroke-linejoin:round;stroke-miterlimit:2.3"
       id="path30" /><path
       style="display:inline;fill:#000000;fill-opacity:1;stroke-width:3.05564;stroke-linecap:round;stroke-linejoin:round;stroke-miterlimit:2.3"
       d="m 211.53417,10.838766 c -0.12458,8.5e-5 -0.24855,0.0107 -0.3687,0.02765 -0.006,8.04e-4 -0.0121,6.96e-4 -0.0178,0.0016 -1.25761,0.184887 -2.23684,1.256755 -2.23684,2.551783 0,1.424944 1.18667,2.582507 2.62398,2.582507 1.43733,0 2.6163,-1.157563 2.6163,-2.582507 0,-1.291356 -0.96842,-2.36087 -2.21991,-2.550243 -0.003,-5.6e-4 -0.006,-9.76e-4 -0.0121,-0.0016 -0.0422,-0.0063 -0.0847,-0.0113 -0.12753,-0.01546 -0.0415,-0.0043 -0.0824,-0.0086 -0.12455,-0.0107 -0.001,-4.8e-5 -0.002,5.2e-5 -0.003,0 -0.0425,-0.0021 -0.0859,-0.0028 -0.12901,-0.0028 z"
       id="path20" /><path
       style="display:inline;fill:#000000;fill-opacity:1;stroke-width:3.05564;stroke-linecap:round;stroke-linejoin:round;stroke-miterlimit:2.3"
       d="m 91.44068,10.838766 c -1.437341,0 -2.623975,1.156053 -2.623975,2.580971 0,1.424941 1.186634,2.582506 2.623975,2.582506 1.437311,0 2.616306,-1.157565 2.616306,-2.582506 0,-1.424918 -1.178995,-2.580971 -2.616306,-2.580971 z"
       id="path19" /><path
       style="display:inline;fill:#000000;fill-opacity:1;stroke-width:3.05564;stroke-linecap:round;stroke-linejoin:round;stroke-miterlimit:2.3"
       d="m 203.00468,10.443937 c -0.54899,0 -1.0628,0.210185 -1.44566,0.59301 -0.38721,0.386984 -0.59146,0.912217 -0.59146,1.479448 v 22.832364 c 0,0.548857 0.20842,1.062648 0.59146,1.445649 0.38292,0.383149 0.89667,0.585327 1.44566,0.585327 0.56716,0 1.09388,-0.197995 1.48098,-0.585327 0.38278,-0.38294 0.59301,-0.896761 0.59301,-1.445649 V 12.516406 c 0,-0.56702 -0.20601,-1.092315 -0.59301,-1.479448 -0.38704,-0.386864 -0.91379,-0.593008 -1.48098,-0.593008 z"
       id="path18" /><path
       style="display:inline;fill:#000000;fill-opacity:1;stroke-width:3.05564;stroke-linecap:round;stroke-linejoin:round;stroke-miterlimit:2.3"
       d="m 159.23113,10.443937 c -0.54898,0 -1.06435,0.210185 -1.44718,0.59301 -0.38719,0.386984 -0.59146,0.912217 -0.59146,1.479448 v 22.832364 c 0,0.548857 0.20839,1.062648 0.59146,1.445649 0.3825,0.380592 0.90012,0.585327 1.44718,0.585327 0.56716,0 1.09233,-0.197995 1.47947,-0.585327 0.38274,-0.38294 0.58684,-0.896761 0.58684,-1.445649 V 12.516406 c 0,-0.56702 -0.20007,-1.092315 -0.58684,-1.479448 -0.38706,-0.386894 -0.91227,-0.593008 -1.47947,-0.593008 z"
       id="path17" /><path
       style="display:inline;fill:#000000;fill-opacity:1;stroke-width:3.05564;stroke-linecap:round;stroke-linejoin:round;stroke-miterlimit:2.3"
       d="m 173.42185,10.270351 c -0.89416,0 -1.78507,0.214346 -2.65933,0.639095 -0.90839,0.416239 -1.65397,1.119552 -2.23069,2.072459 l -0.006,0.0063 v 0.0063 c -0.57064,0.985222 -0.83575,2.249062 -0.83575,3.779276 V 18.3592 h -1.61925 c -1.11871,0 -1.75657,0.880579 -1.75598,2.007934 6.6e-4,1.217226 0.8564,1.837404 1.75598,1.837404 h 1.61925 l 0.002,13.146046 c 3e-5,0.548739 0.21048,1.064128 0.593,1.447188 0.3828,0.382641 0.89652,0.585327 1.44566,0.585327 0.22744,0 1.03201,-0.09427 1.47945,-0.585327 0.3831,-0.382911 0.58684,-0.898239 0.58684,-1.447188 V 22.204373 h 3.94826 c 0.92285,0 1.83178,-0.795785 1.8405,-1.837404 0.009,-1.079433 -0.71424,-2.006397 -1.8405,-2.006397 h -3.94826 v -1.479447 c 0,-1.180302 0.26161,-1.843767 0.59761,-2.103182 l 0.006,-0.0063 c 0.44524,-0.348425 1.03288,-0.533531 1.82357,-0.53463 0.30577,0.006 0.77167,0.203942 1.28897,0.348739 0.25864,0.07224 0.53791,0.130123 0.84186,0.09831 0.30391,-0.03181 0.62663,-0.177481 0.87725,-0.436307 h 0.006 v -0.0063 c 0.22417,-0.244669 0.32019,-0.531343 0.39483,-0.812699 0.0747,-0.281236 0.11059,-0.547564 0.11059,-0.771216 0,-0.365341 -0.11358,-0.718593 -0.33185,-1.004735 -0.19917,-0.282425 -0.44586,-0.507191 -0.74355,-0.639098 -0.44878,-0.222967 -0.94103,-0.393679 -1.47482,-0.516193 -0.55831,-0.152809 -1.14732,-0.227368 -1.76985,-0.227368 z"
       id="path201-9-8" /></g></svg>
