<?xml version="1.0" encoding="UTF-8" standalone="no"?>
<!-- Created with Inkscape (http://www.inkscape.org/) -->

<svg
   width="200mm"
   height="47.875mm"
   viewBox="0 0 200 47.875"
   version="1.1"
   id="svg1523"
   inkscape:version="1.2.2 (732a01da63, 2022-12-09)"
   sodipodi:docname="logo-black.svg"
   xml:space="preserve"
   xmlns:inkscape="http://www.inkscape.org/namespaces/inkscape"
   xmlns:sodipodi="http://sodipodi.sourceforge.net/DTD/sodipodi-0.dtd"
   xmlns="http://www.w3.org/2000/svg"
   xmlns:svg="http://www.w3.org/2000/svg"><sodipodi:namedview
     id="namedview1525"
     pagecolor="#000000"
     bordercolor="#eeeeee"
     borderopacity="1"
     inkscape:showpageshadow="false"
     inkscape:pageopacity="0"
     inkscape:pagecheckerboard="true"
     inkscape:deskcolor="#000000"
     inkscape:document-units="mm"
     showgrid="false"
     showguides="false"
     inkscape:lockguides="false"
     inkscape:zoom="3.790409"
     inkscape:cx="240.21154"
     inkscape:cy="92.865967"
     inkscape:window-width="1409"
     inkscape:window-height="975"
     inkscape:window-x="84"
     inkscape:window-y="-7"
     inkscape:window-maximized="1"
     inkscape:current-layer="layer1" /><defs
     id="defs1520"><inkscape:path-effect
       effect="spiro"
       id="path-effect19109"
       is_visible="true"
       lpeversion="1" /><rect
       x="851"
       y="648"
       width="316.28342"
       height="113.06451"
       id="rect21295" /><rect
       x="754"
       y="685"
       width="240"
       height="168"
       id="rect21289" /><rect
       x="854"
       y="545"
       width="242.5"
       height="209.5"
       id="rect17422" /><clipPath
       clipPathUnits="userSpaceOnUse"
       id="clipPath28389"><rect
         style="fill:#40b7c6;fill-opacity:1;stroke-width:6.66221"
         id="rect28391"
         width="232.99783"
         height="55.773533"
         x="39.10709"
         y="127.20324"
         ry="11.663928" /></clipPath><filter
       style="color-interpolation-filters:sRGB"
       inkscape:label="Lightness-Contrast"
       id="filter28609"
       x="0"
       y="0"
       width="1"
       height="1"><feColorMatrix
         values="1 0 0 -0.0351 -0 0 1 0 -0.0351 -0 0 0 1 -0.0351 -0 0 0 0 1 0"
         id="feColorMatrix28607"
         result="fbSourceGraphic" /><feColorMatrix
         result="fbSourceGraphicAlpha"
         in="fbSourceGraphic"
         values="0 0 0 -1 0 0 0 0 -1 0 0 0 0 -1 0 0 0 0 1 0"
         id="feColorMatrix28611" /><feColorMatrix
         id="feColorMatrix28613"
         values="1 0 0 -0.0351 -0 0 1 0 -0.0351 -0 0 0 1 -0.0351 -0 0 0 0 1 0"
         in="fbSourceGraphic"
         result="fbSourceGraphic" /><feColorMatrix
         result="fbSourceGraphicAlpha"
         in="fbSourceGraphic"
         values="0 0 0 -1 0 0 0 0 -1 0 0 0 0 -1 0 0 0 0 1 0"
         id="feColorMatrix28615" /><feColorMatrix
         id="feColorMatrix28617"
         values="1 0 0 -0.0351 -0 0 1 0 -0.0351 -0 0 0 1 -0.0351 -0 0 0 0 1 0"
         in="fbSourceGraphic"
         result="fbSourceGraphic" /><feColorMatrix
         result="fbSourceGraphicAlpha"
         in="fbSourceGraphic"
         values="0 0 0 -1 0 0 0 0 -1 0 0 0 0 -1 0 0 0 0 1 0"
         id="feColorMatrix32519" /><feColorMatrix
         id="feColorMatrix32521"
         values="0.913738 0 0 -0.0335861 0.043131 0 0.913738 0 -0.0335861 0.043131 0 0 0.913738 -0.0335861 0.043131 0 0 0 1 0"
         in="fbSourceGraphic" /></filter><clipPath
       clipPathUnits="userSpaceOnUse"
       id="clipPath28389-2"><rect
         style="fill:#40b7c6;fill-opacity:1;stroke-width:6.66221"
         id="rect28391-6"
         width="232.99783"
         height="55.773533"
         x="39.10709"
         y="127.20324"
         ry="11.663928" /></clipPath><filter
       style="color-interpolation-filters:sRGB"
       inkscape:label="Lightness-Contrast"
       id="filter28609-2"
       x="0"
       y="0"
       width="1"
       height="1"><feColorMatrix
         values="1 0 0 -0.0351 -0 0 1 0 -0.0351 -0 0 0 1 -0.0351 -0 0 0 0 1 0"
         id="feColorMatrix28607-8"
         result="fbSourceGraphic" /><feColorMatrix
         result="fbSourceGraphicAlpha"
         in="fbSourceGraphic"
         values="0 0 0 -1 0 0 0 0 -1 0 0 0 0 -1 0 0 0 0 1 0"
         id="feColorMatrix28611-4" /><feColorMatrix
         id="feColorMatrix28613-8"
         values="1 0 0 -0.0351 -0 0 1 0 -0.0351 -0 0 0 1 -0.0351 -0 0 0 0 1 0"
         in="fbSourceGraphic"
         result="fbSourceGraphic" /><feColorMatrix
         result="fbSourceGraphicAlpha"
         in="fbSourceGraphic"
         values="0 0 0 -1 0 0 0 0 -1 0 0 0 0 -1 0 0 0 0 1 0"
         id="feColorMatrix28615-1" /><feColorMatrix
         id="feColorMatrix28617-6"
         values="1 0 0 -0.0351 -0 0 1 0 -0.0351 -0 0 0 1 -0.0351 -0 0 0 0 1 0"
         in="fbSourceGraphic" /></filter><clipPath
       clipPathUnits="userSpaceOnUse"
       id="clipPath28389-8"><rect
         style="fill:#40b7c6;fill-opacity:1;stroke-width:6.66221"
         id="rect28391-9"
         width="232.99783"
         height="55.773533"
         x="39.10709"
         y="127.20324"
         ry="11.663928" /></clipPath><filter
       style="color-interpolation-filters:sRGB"
       inkscape:label="Lightness-Contrast"
       id="filter28609-6"
       x="0"
       y="0"
       width="1"
       height="1"><feColorMatrix
         values="1 0 0 -0.0351 -0 0 1 0 -0.0351 -0 0 0 1 -0.0351 -0 0 0 0 1 0"
         id="feColorMatrix28607-6"
         result="fbSourceGraphic" /><feColorMatrix
         result="fbSourceGraphicAlpha"
         in="fbSourceGraphic"
         values="0 0 0 -1 0 0 0 0 -1 0 0 0 0 -1 0 0 0 0 1 0"
         id="feColorMatrix28611-8" /><feColorMatrix
         id="feColorMatrix28613-3"
         values="1 0 0 -0.0351 -0 0 1 0 -0.0351 -0 0 0 1 -0.0351 -0 0 0 0 1 0"
         in="fbSourceGraphic"
         result="fbSourceGraphic" /><feColorMatrix
         result="fbSourceGraphicAlpha"
         in="fbSourceGraphic"
         values="0 0 0 -1 0 0 0 0 -1 0 0 0 0 -1 0 0 0 0 1 0"
         id="feColorMatrix28615-6" /><feColorMatrix
         id="feColorMatrix28617-1"
         values="1 0 0 -0.0351 -0 0 1 0 -0.0351 -0 0 0 1 -0.0351 -0 0 0 0 1 0"
         in="fbSourceGraphic" /></filter><clipPath
       clipPathUnits="userSpaceOnUse"
       id="clipPath28389-8-4"><rect
         style="fill:#40b7c6;fill-opacity:1;stroke-width:6.66221"
         id="rect28391-9-5"
         width="232.99783"
         height="55.773533"
         x="39.10709"
         y="127.20324"
         ry="11.663928" /></clipPath><filter
       style="color-interpolation-filters:sRGB"
       inkscape:label="Lightness-Contrast"
       id="filter28609-6-2"
       x="0"
       y="0"
       width="1"
       height="1"><feColorMatrix
         values="1 0 0 -0.0351 -0 0 1 0 -0.0351 -0 0 0 1 -0.0351 -0 0 0 0 1 0"
         id="feColorMatrix28607-6-4"
         result="fbSourceGraphic" /><feColorMatrix
         result="fbSourceGraphicAlpha"
         in="fbSourceGraphic"
         values="0 0 0 -1 0 0 0 0 -1 0 0 0 0 -1 0 0 0 0 1 0"
         id="feColorMatrix28611-8-4" /><feColorMatrix
         id="feColorMatrix28613-3-6"
         values="1 0 0 -0.0351 -0 0 1 0 -0.0351 -0 0 0 1 -0.0351 -0 0 0 0 1 0"
         in="fbSourceGraphic"
         result="fbSourceGraphic" /><feColorMatrix
         result="fbSourceGraphicAlpha"
         in="fbSourceGraphic"
         values="0 0 0 -1 0 0 0 0 -1 0 0 0 0 -1 0 0 0 0 1 0"
         id="feColorMatrix28615-6-4" /><feColorMatrix
         id="feColorMatrix28617-1-6"
         values="1 0 0 -0.0351 -0 0 1 0 -0.0351 -0 0 0 1 -0.0351 -0 0 0 0 1 0"
         in="fbSourceGraphic"
         result="fbSourceGraphic" /><feColorMatrix
         result="fbSourceGraphicAlpha"
         in="fbSourceGraphic"
         values="0 0 0 -1 0 0 0 0 -1 0 0 0 0 -1 0 0 0 0 1 0"
         id="feColorMatrix32515" /><feColorMatrix
         id="feColorMatrix32517"
         values="0.913738 0 0 -0.0335861 0.043131 0 0.913738 0 -0.0335861 0.043131 0 0 0.913738 -0.0335861 0.043131 0 0 0 1 0"
         in="fbSourceGraphic" /></filter><clipPath
       clipPathUnits="userSpaceOnUse"
       id="clipPath29187"><path
         id="path29189"
         style="fill:#efefef;stroke-width:6.66222"
         d="M 87.833964,127.203 H 223.37805 c 26.99468,0 48.72687,5.20215 48.72687,11.66402 v 32.44595 c 0,6.46187 -21.73219,11.66403 -48.72687,11.66403 H 87.833964 c -26.994681,0 -48.726867,-5.20216 -48.726867,-11.66403 v -32.44595 c 0,-6.46187 21.732186,-11.66402 48.726867,-11.66402 z" /></clipPath><clipPath
       clipPathUnits="userSpaceOnUse"
       id="clipPath28389-9"><rect
         style="fill:#40b7c6;fill-opacity:1;stroke-width:6.66221"
         id="rect28391-7"
         width="232.99783"
         height="55.773533"
         x="39.10709"
         y="127.20324"
         ry="11.663928" /></clipPath><filter
       style="color-interpolation-filters:sRGB"
       inkscape:label="Lightness-Contrast"
       id="filter28609-1"
       x="0"
       y="0"
       width="1"
       height="1"><feColorMatrix
         values="1 0 0 -0.0351 -0 0 1 0 -0.0351 -0 0 0 1 -0.0351 -0 0 0 0 1 0"
         id="feColorMatrix28607-1"
         result="fbSourceGraphic" /><feColorMatrix
         result="fbSourceGraphicAlpha"
         in="fbSourceGraphic"
         values="0 0 0 -1 0 0 0 0 -1 0 0 0 0 -1 0 0 0 0 1 0"
         id="feColorMatrix28611-3" /><feColorMatrix
         id="feColorMatrix28613-9"
         values="1 0 0 -0.0351 -0 0 1 0 -0.0351 -0 0 0 1 -0.0351 -0 0 0 0 1 0"
         in="fbSourceGraphic"
         result="fbSourceGraphic" /><feColorMatrix
         result="fbSourceGraphicAlpha"
         in="fbSourceGraphic"
         values="0 0 0 -1 0 0 0 0 -1 0 0 0 0 -1 0 0 0 0 1 0"
         id="feColorMatrix28615-8" /><feColorMatrix
         id="feColorMatrix28617-0"
         values="1 0 0 -0.0351 -0 0 1 0 -0.0351 -0 0 0 1 -0.0351 -0 0 0 0 1 0"
         in="fbSourceGraphic"
         result="fbSourceGraphic" /><feColorMatrix
         result="fbSourceGraphicAlpha"
         in="fbSourceGraphic"
         values="0 0 0 -1 0 0 0 0 -1 0 0 0 0 -1 0 0 0 0 1 0"
         id="feColorMatrix32519-5" /><feColorMatrix
         id="feColorMatrix32521-9"
         values="0.913738 0 0 -0.0335861 0.043131 0 0.913738 0 -0.0335861 0.043131 0 0 0.913738 -0.0335861 0.043131 0 0 0 1 0"
         in="fbSourceGraphic" /></filter></defs><g
     inkscape:label="Layer 1"
     inkscape:groupmode="layer"
     id="layer1"><text
       xml:space="preserve"
       transform="scale(0.26458333)"
       id="text17420"
       style="font-style:normal;font-weight:normal;font-size:40px;line-height:1.25;font-family:sans-serif;white-space:pre;shape-inside:url(#rect17422);display:inline;fill:#000000;fill-opacity:1;stroke:none" /><text
       xml:space="preserve"
       transform="scale(0.26458333)"
       id="text21287"
       style="font-style:normal;font-weight:normal;font-size:40px;line-height:1.25;font-family:sans-serif;white-space:pre;shape-inside:url(#rect21289);display:inline;fill:#000000;fill-opacity:1;stroke:none" /><text
       xml:space="preserve"
       transform="scale(0.26458333)"
       id="text21293"
       style="font-style:normal;font-weight:normal;font-size:40px;line-height:1.25;font-family:sans-serif;white-space:pre;shape-inside:url(#rect21295);display:inline;fill:#000000;fill-opacity:1;stroke:none" /><g
       id="g20728"
       style="fill:#ffffff;fill-opacity:1;stroke:#ffffff;stroke-opacity:1"
       transform="matrix(0.85838206,0,0,0.85838206,-34.111546,-109.20633)"><ellipse
         style="fill:#ffffff;fill-opacity:1;stroke:#ffffff;stroke-width:0;stroke-dasharray:none;stroke-opacity:1"
         id="path9174-9-4"
         cx="230.50461"
         cy="142.51158"
         rx="3.0413923"
         ry="2.9913573" /><ellipse
         style="fill:#ffffff;fill-opacity:1;stroke:#ffffff;stroke-width:0;stroke-dasharray:none;stroke-opacity:1"
         id="path9174-9-4-9"
         cx="219.73309"
         cy="167.71068"
         rx="3.0413923"
         ry="2.9913573" /><path
         d="m 61.814271,169.97073 q -0.79134,0 -1.41608,-0.45838 -0.58309,-0.45838 -0.87463,-1.08288 l -7.246962,-17.32605 q -0.208241,-0.49948 -0.208241,-0.87463 0,-0.79135 0.541439,-1.33279 0.541439,-0.58306 1.332773,-0.58306 0.583093,0 1.04123,0.33337 0.499768,0.2917 0.66639,0.74968 l 6.372331,16.15989 6.37232,-16.15989 q 0.20824,-0.45838 0.66639,-0.74968 0.49977,-0.33337 1.04123,-0.33337 0.79134,0 1.33277,0.58306 0.54144,0.54115 0.54144,1.33279 0,0.37504 -0.20824,0.87463 l -7.24696,17.32605 q -0.29152,0.62473 -0.91628,1.08288 -0.58309,0.45838 -1.37442,0.45838 z"
         style="font-size:7.29616px;line-height:1.25;font-family:'Varela Round';-inkscape-font-specification:'Varela Round';letter-spacing:0.0264583px;fill:#ffffff;fill-opacity:1;stroke:#ffffff;stroke-width:0.570837;stroke-opacity:1"
         id="path25682" /><path
         style="font-size:7.29616px;line-height:1.25;font-family:'Varela Round';-inkscape-font-specification:'Varela Round';letter-spacing:0.0264583px;fill:#ffffff;fill-opacity:1;stroke:#ffffff;stroke-width:0.570837;stroke-opacity:1"
         d="m 78.375101,170.4999 q -0.79134,0 -1.33278,-0.54172 -0.54144,-0.54172 -0.54144,-1.33279 V 150.7579 q 0,-0.83296 0.54144,-1.3744 0.54144,-0.54173 1.33278,-0.54173 0.83298,0 1.37442,0.54173 0.54144,0.54172 0.54144,1.3744 v 17.86749 q 0,0.79135 -0.54144,1.33279 -0.54144,0.54172 -1.37442,0.54172 z"
         id="path25721" /><path
         d="m 93.894711,170.70815 q -2.2907,0 -4.16491,-0.49949 -1.83257,-0.50005 -3.41524,-1.37446 -0.70803,-0.49948 -0.70803,-1.3744 0,-0.62473 0.45815,-1.12455 0.45816,-0.54116 1.16618,-0.54116 0.37482,0 0.74969,0.16669 1.12453,0.49948 2.4573,0.87464 1.37442,0.37504 3.20699,0.37504 2.41561,0 3.49849,-0.74969 1.12455,-0.79129 1.12455,-2.20737 0,-0.9163 -0.91626,-1.41607 -0.87463,-0.50005 -2.33236,-0.83302 -1.41607,-0.37504 -2.99874,-0.74968 -1.58267,-0.41672 -3.04039,-1.08288 -1.41607,-0.70801 -2.33235,-1.87417 -0.87464,-1.20784 -0.87464,-3.08207 0,-2.83215 2.04081,-4.70638 2.04081,-1.87417 6.08078,-1.87417 1.70762,0 3.20698,0.2917 1.54103,0.29169 2.83215,0.74968 0.583059,0.16668 0.874639,0.66639 0.33337,0.45838 0.33337,0.91625 0,0.6664 -0.50005,1.16622 -0.45839,0.49948 -1.166169,0.49948 -0.16668,0 -0.29169,0 -0.12502,-0.04 -0.25003,-0.0833 -0.99959,-0.33337 -2.20743,-0.54172 -1.16616,-0.20836 -2.54056,-0.20836 -2.29071,0 -3.54018,0.83297 -1.24948,0.83296 -1.24948,2.08247 0,1.08288 0.87463,1.66593 0.91628,0.58311 2.33235,0.95798 1.45773,0.33337 3.04036,0.70801 1.62432,0.37504 3.0404,1.08288 1.457739,0.66639 2.332379,1.87423 0.91625,1.20783 0.91625,3.24863 0,2.54057 -2.040799,4.37318 -1.99913,1.79089 -5.99746,1.79089 z"
         style="font-size:7.29616px;line-height:1.25;font-family:'Varela Round';-inkscape-font-specification:'Varela Round';letter-spacing:0.0264583px;fill:#ffffff;fill-opacity:1;stroke:#ffffff;stroke-width:0.570837;stroke-opacity:1"
         id="path25686" /><path
         d="m 114.41218,170.70815 q -2.374,0 -4.03999,-1.08288 -1.66593,-1.12455 -2.54057,-2.99872 -0.87463,-1.87423 -0.87463,-4.08166 v -11.82838 q 0,-0.79129 0.54172,-1.33273 0.58311,-0.54172 1.37441,-0.54172 0.79135,0 1.33279,0.54172 0.54115,0.54173 0.54115,1.33273 v 11.4119 q 0,2.37399 1.08288,3.74846 1.08288,1.33273 3.49855,1.33273 2.24904,0 3.91503,-1.20784 1.66593,-1.24944 2.91543,-2.79048 v -12.49477 q 0,-0.79129 0.54173,-1.33273 0.58305,-0.54172 1.3744,-0.54172 0.79135,0 1.33279,0.54172 0.54116,0.54173 0.54116,1.33273 v 17.86755 q 0,0.7913 -0.54116,1.37441 -0.54115,0.54172 -1.33279,0.54172 -0.79135,0 -1.3744,-0.54172 -0.54173,-0.58311 -0.54173,-1.37441 v -1.70766 q -1.29112,1.41608 -3.12368,2.62391 -1.83261,1.20784 -4.62309,1.20784 z"
         style="font-size:7.29616px;line-height:1.25;font-family:'Varela Round';-inkscape-font-specification:'Varela Round';letter-spacing:0.0264583px;fill:#ffffff;fill-opacity:1;stroke:#ffffff;stroke-width:0.570837;stroke-opacity:1"
         id="path25688" /><path
         d="m 138.09501,170.70815 q -1.79094,0 -3.37359,-0.74968 -1.54103,-0.74968 -2.49895,-2.12409 -0.91631,-1.41608 -0.91631,-3.37359 0,-2.95711 2.33238,-4.83134 2.374,-1.91584 7.24695,-1.91584 h 5.03953 v -0.33337 q 0,-2.79048 -1.37441,-3.9567 -1.3744,-1.20778 -4.20655,-1.20778 -1.74928,0 -3.08207,0.33337 -1.29112,0.2917 -2.45728,0.6664 -0.33337,0.0833 -0.54173,0.0833 -0.62472,0 -1.08287,-0.45838 -0.45839,-0.45839 -0.45839,-1.12455 0,-1.1245 1.08288,-1.58265 1.45775,-0.62472 3.20702,-1.04126 1.79089,-0.45781 3.99832,-0.45781 3.04039,0 4.95623,1.20777 1.91585,1.20784 2.83215,3.08207 0.91626,1.87423 0.91626,3.91503 v 11.7867 q 0,0.79135 -0.58306,1.33279 -0.54172,0.54172 -1.33279,0.54172 -0.79135,0 -1.33279,-0.54172 -0.54172,-0.54172 -0.54172,-1.33279 v -1.08288 q -1.1245,1.16622 -2.99873,2.16576 -1.87422,0.99959 -4.83128,0.99959 z m 1.41602,-3.33192 q 1.95752,0 3.66518,-0.95793 1.7076,-0.95797 2.74881,-2.16575 V 160.754 h -4.53976 q -2.91543,0 -4.62304,0.74968 -1.66599,0.74968 -1.66599,2.54063 0,1.33273 0.91631,2.33232 0.95792,0.9996 3.49849,0.9996 z"
         style="font-size:7.29616px;line-height:1.25;font-family:'Varela Round';-inkscape-font-specification:'Varela Round';letter-spacing:0.0264583px;fill:#ffffff;fill-opacity:1;stroke:#ffffff;stroke-width:0.570837;stroke-opacity:1"
         id="path25690" /><path
         d="m 158.11267,170.4999 q -0.79129,0 -1.33273,-0.54172 -0.54172,-0.54172 -0.54172,-1.33279 v -27.03034 q 0,-0.83296 0.54172,-1.3744 0.54115,-0.54116 1.33273,-0.54116 0.83303,0 1.37447,0.54116 0.54115,0.54172 0.54115,1.3744 v 27.03034 q 0,0.79135 -0.54115,1.33279 -0.54173,0.54172 -1.37447,0.54172 z"
         style="font-size:7.29616px;line-height:1.25;font-family:'Varela Round';-inkscape-font-specification:'Varela Round';letter-spacing:0.0264583px;fill:#ffffff;fill-opacity:1;stroke:#ffffff;stroke-width:0.570837;stroke-opacity:1"
         id="path25692" /><path
         d="m 170.21705,170.4999 q -0.7913,0 -1.33273,-0.54172 -0.54116,-0.54172 -0.54116,-1.33279 v -16.32646 h -2.45734 q -0.66634,0 -1.16616,-0.45838 -0.45838,-0.49948 -0.45838,-1.16616 0,-0.70807 0.45838,-1.16617 0.50005,-0.45838 1.16616,-0.45838 h 2.45734 v -2.41567 q 0,-2.62391 0.91625,-4.20655 0.95792,-1.58271 2.41567,-2.24904 1.45775,-0.70807 2.91544,-0.70807 1.04126,0 1.95751,0.25003 0.91631,0.20835 1.66599,0.58305 0.37504,0.16668 0.6664,0.58311 0.29169,0.37504 0.29169,0.87464 0,0.58311 -0.45838,1.08287 -0.41671,0.49949 -1.08288,0.49949 -0.49948,0 -0.99959,-0.12502 -0.49948,-0.12501 -1.08288,-0.12501 -1.54097,0 -2.49895,0.74968 -0.91625,0.70801 -0.91625,2.91544 v 2.29071 h 5.20615 q 0.70801,0 1.16616,0.45838 0.45838,0.45838 0.45838,1.16616 0,0.6664 -0.45838,1.16617 -0.45838,0.45838 -1.16616,0.45838 h -5.20615 v 16.32646 q 0,0.79135 -0.54173,1.33279 -0.54115,0.54172 -1.37446,0.54172 z"
         style="font-size:7.29616px;line-height:1.25;font-family:'Varela Round';-inkscape-font-specification:'Varela Round';letter-spacing:0.0264583px;fill:#ffffff;fill-opacity:1;stroke:#ffffff;stroke-width:0.570837;stroke-opacity:1"
         id="path25694" /><path
         d="m 190.9845,170.70815 q -3.20702,0 -5.62268,-1.37441 -2.41562,-1.41607 -3.74841,-3.87341 -1.29112,-2.4989 -1.29112,-5.78921 0,-3.2903 1.29112,-5.74758 1.33279,-2.49896 3.74841,-3.87336 2.41566,-1.41608 5.62268,-1.41608 3.20697,0 5.58097,1.41608 2.41566,1.3744 3.74845,3.87336 1.33274,2.45728 1.33274,5.74758 0,3.29031 -1.33274,5.78921 -1.33279,2.45734 -3.74845,3.87341 -2.374,1.37441 -5.58097,1.37441 z m 0,-3.45688 q 1.58265,0 3.1653,-0.74968 1.5827,-0.74968 2.62391,-2.41567 1.08287,-1.7076 1.08287,-4.45647 0,-2.74881 -1.08287,-4.4148 -1.04121,-1.66598 -2.62391,-2.37399 -1.58265,-0.74968 -3.1653,-0.74968 -1.5827,0 -3.20702,0.74968 -1.58264,0.70801 -2.62391,2.37399 -1.0412,1.66599 -1.0412,4.4148 0,2.74887 1.0412,4.45647 1.04127,1.66599 2.62391,2.41567 1.62432,0.74968 3.20702,0.74968 z"
         style="font-size:7.29616px;line-height:1.25;font-family:'Varela Round';-inkscape-font-specification:'Varela Round';letter-spacing:0.0264583px;fill:#ffffff;fill-opacity:1;stroke:#ffffff;stroke-width:0.570837;stroke-opacity:1"
         id="path25696" /><path
         d="m 208.96137,170.4999 q -0.79136,0 -1.33279,-0.54172 -0.54173,-0.54172 -0.54173,-1.33279 v -27.03034 q 0,-0.83296 0.54173,-1.3744 0.54115,-0.54116 1.33279,-0.54116 0.83296,0 1.3744,0.54116 0.54115,0.54172 0.54115,1.3744 v 27.03034 q 0,0.79135 -0.54115,1.33279 -0.54172,0.54172 -1.3744,0.54172 z"
         style="font-size:7.29616px;line-height:1.25;font-family:'Varela Round';-inkscape-font-specification:'Varela Round';letter-spacing:0.0264583px;fill:#ffffff;fill-opacity:1;stroke:#ffffff;stroke-width:0.570837;stroke-opacity:1"
         id="path25698" /><path
         style="font-size:7.29616px;line-height:1.25;font-family:'Varela Round';-inkscape-font-specification:'Varela Round';letter-spacing:0.0264583px;fill:#ffffff;fill-opacity:1;stroke:#ffffff;stroke-width:0.570837;stroke-opacity:1"
         d="m 230.46292,170.4999 q -0.79135,0 -1.33279,-0.54172 -0.54116,-0.54172 -0.54116,-1.33279 V 150.7579 q 0,-0.83296 0.54116,-1.3744 0.54172,-0.54173 1.33279,-0.54173 0.83296,0 1.3744,0.54173 0.54173,0.54172 0.54173,1.3744 v 17.86749 q 0,0.79135 -0.54173,1.33279 -0.54115,0.54172 -1.3744,0.54172 z"
         id="path25725" /><path
         d="m 248.48145,170.70815 q -3.20696,0 -5.62263,-1.37441 -2.41567,-1.41607 -3.7484,-3.87341 -1.29112,-2.4989 -1.29112,-5.78921 0,-3.2903 1.29112,-5.74758 1.33273,-2.49896 3.7484,-3.87336 2.41567,-1.41608 5.62263,-1.41608 3.20702,0 5.58102,1.41608 2.41567,1.3744 3.7484,3.87336 1.33279,2.45728 1.33279,5.74758 0,3.29031 -1.33279,5.78921 -1.33273,2.45734 -3.7484,3.87341 -2.374,1.37441 -5.58102,1.37441 z m 0,-3.45688 q 1.5827,0 3.16535,-0.74968 1.5827,-0.74968 2.62391,-2.41567 1.08288,-1.7076 1.08288,-4.45647 0,-2.74881 -1.08288,-4.4148 -1.04121,-1.66598 -2.62391,-2.37399 -1.58265,-0.74968 -3.16535,-0.74968 -1.58265,0 -3.20696,0.74968 -1.58265,0.70801 -2.62391,2.37399 -1.04121,1.66599 -1.04121,4.4148 0,2.74887 1.04121,4.45647 1.04126,1.66599 2.62391,2.41567 1.62431,0.74968 3.20696,0.74968 z"
         style="font-size:7.29616px;line-height:1.25;font-family:'Varela Round';-inkscape-font-specification:'Varela Round';letter-spacing:0.0264583px;fill:#ffffff;fill-opacity:1;stroke:#ffffff;stroke-width:0.570837;stroke-opacity:1"
         id="path25704" /><ellipse
         style="fill:#ffffff;fill-opacity:1;stroke:#ffffff;stroke-width:0;stroke-dasharray:none;stroke-opacity:1"
         id="path9174-9"
         cx="78.416779"
         cy="142.5117"
         rx="3.0413923"
         ry="2.9913573" /></g></g></svg>
